<?xml version="1.0" encoding="utf-8"?>
<!DOCTYPE svg PUBLIC "-//W3C//DTD SVG 1.0//EN" "http://www.w3.org/TR/2001/REC-SVG-20010904/DTD/svg10.dtd">
<svg version="1.0" xmlns="http://www.w3.org/2000/svg" width="737px" height="734px" viewBox="0 0 737 734" preserveAspectRatio="xMidYMid meet">
 <g fill="#050b14">
  <path d="M344 662 c-6.25 -1.45 -11.15 -2.20 -13.65 -2.10 -2.50 0.10 -3.10 -0.05 -4.40 -1.10 -0.85 -0.75 -2.40 -1.35 -3.85 -1.55 -2.20 -0.30 -4.05 -0.80 -6.35 -1.75 -0.55 -0.25 -1.80 -0.55 -2.80 -0.70 -0.95 -0.20 -3.65 -1.60 -6 -3.20 -2.30 -1.55 -4.85 -3.20 -5.70 -3.60 -0.80 -0.40 -2.45 -1.35 -3.55 -2.10 -1.15 -0.80 -2.30 -1.40 -2.55 -1.40 -0.25 0 -0.95 -0.50 -1.55 -1.10 -0.55 -0.65 -1.90 -1.60 -2.95 -2.15 -1.05 -0.55 -2 -1.10 -2.15 -1.25 -0.30 -0.30 -3.30 -2 -4.50 -2.50 -4.50 -2.05 -7.20 -4.40 -11.10 -9.60 -2.35 -3.15 -2.65 -3.40 -4.45 -3.40 -1.45 0 -1.95 -0.20 -1.95 -0.75 0 -0.45 -0.55 -1.30 -1.15 -1.90 -0.65 -0.60 -1.40 -1.50 -1.65 -1.95 -0.25 -0.45 -1.50 -1.95 -2.80 -3.30 -1.35 -1.40 -2.40 -2.70 -2.40 -2.95 -0.05 -0.20 -0.60 -1.05 -1.25 -1.90 -1.05 -1.30 -1.55 -1.50 -3.85 -1.50 -2.90 0 -2.55 0.30 -5.10 -5.25 -0.50 -1.10 -0.85 -1.20 -3 -1.05 l-2.45 0.15 0.35 -3.30 c0.20 -1.85 0.10 -3.65 -0.15 -4.15 -0.25 -0.50 -0.60 -1.30 -0.75 -1.75 -0.20 -0.70 -0.85 -0.90 -3.05 -0.90 l-2.75 0 0 -1.75 c0 -0.95 0.25 -1.75 0.55 -1.75 0.30 0 0.80 -0.30 1.20 -0.65 0.55 -0.55 0.30 -1.10 -1.30 -3.25 -1.05 -1.40 -1.95 -2.75 -1.95 -3.05 0 -0.30 -0.45 -0.75 -0.95 -1.05 -0.55 -0.25 -2.15 -2.40 -3.55 -4.75 -1.40 -2.35 -2.75 -4.25 -2.95 -4.25 -0.25 0 -0.75 -1.05 -1.15 -2.35 -0.50 -1.55 -1.10 -2.45 -1.70 -2.60 -1.40 -0.25 -2.15 -1.60 -2.20 -3.65 0 -1.40 -0.50 -2.55 -2 -4.50 -1.10 -1.45 -2 -2.85 -2 -3.15 0 -0.25 -0.60 -1.05 -1.25 -1.70 -0.70 -0.65 -1.25 -1.45 -1.25 -1.85 0 -0.40 -0.20 -0.70 -0.50 -0.70 -0.25 0 -0.50 -0.30 -0.50 -0.70 0 -0.40 -0.25 -0.80 -0.50 -0.90 -0.30 -0.10 -0.65 -1.05 -0.85 -2.15 -0.25 -1.70 -1.20 -3.85 -4.40 -9.80 -0.25 -0.50 -0.95 -0.95 -1.50 -1.05 -0.80 -0.10 -1.05 -0.65 -1.30 -2.65 -0.30 -2.45 -5.20 -14.10 -7.05 -16.85 -0.50 -0.70 -0.90 -1.50 -0.90 -1.70 0 -0.35 -2.10 -5.95 -3 -7.95 -0.25 -0.55 -0.95 -2.25 -1.50 -3.75 -0.60 -1.50 -1.30 -3.15 -1.55 -3.60 -0.25 -0.50 -0.45 -1.25 -0.45 -1.65 0 -0.40 -0.30 -0.75 -0.65 -0.75 -0.70 0 -3.10 -5.35 -4 -9.10 -0.35 -1.25 -0.75 -2.50 -1 -2.70 -0.20 -0.20 -0.35 -0.80 -0.35 -1.30 0 -0.50 -0.20 -0.90 -0.50 -0.90 -0.25 0 -0.50 -0.75 -0.50 -1.70 0 -1.05 -0.60 -2.70 -1.55 -4.20 -1.15 -1.85 -1.65 -3.50 -2.05 -6.40 -0.25 -2.20 -0.75 -4.40 -1.10 -4.95 -0.75 -1.25 -1.45 -3.60 -3.05 -10.45 -0.75 -3 -1.75 -6.40 -2.30 -7.60 -0.55 -1.15 -1.25 -3.35 -1.50 -4.80 -0.85 -5.25 -2.25 -10.80 -2.85 -11.50 -0.30 -0.40 -0.75 -2.20 -0.95 -3.95 -0.15 -1.70 -0.60 -3.70 -1 -4.45 -0.35 -0.70 -0.65 -1.90 -0.65 -2.75 0 -0.80 -0.35 -2.85 -0.80 -4.50 -1.05 -4.20 -3.15 -16.40 -3.20 -18.60 0 -1 0.25 -1.15 1.75 -1.15 1.40 0 1.80 0.20 2 1.15 0.65 3.05 1.90 9.35 2.30 11.45 0.20 1.30 0.85 4.20 1.40 6.50 0.55 2.30 1.50 6.50 2.10 9.40 0.60 2.90 1.70 7.50 2.45 10.25 0.75 2.75 1.85 6.90 2.45 9.25 0.85 3.50 3.25 11.85 5.55 19.25 3.40 11.15 14.95 41.25 20.65 53.80 2.25 5 11.35 23.05 14.50 28.70 7.80 14.20 19.25 32.35 25.75 40.75 2.75 3.60 9.90 12.35 12.85 15.75 4.35 5.05 20.35 21.25 21 21.25 0.30 0 1.55 1.05 2.75 2.30 1.25 1.25 3.05 2.85 4 3.50 0.95 0.70 2.65 1.90 3.75 2.70 17.40 12.85 34.40 20.15 54.10 23.20 8.45 1.30 10.75 0.95 13.60 -2.10 l1.65 -1.85 -0.25 -4.50 c-0.25 -4.15 -3.35 -24.85 -6.85 -45 -5.65 -32.95 -8 -44.70 -9.85 -50 -1.30 -3.65 -5.50 -10.65 -6.45 -10.70 -0.30 -0.05 -0.95 -0.55 -1.50 -1.10 -1.20 -1.40 -5.30 -4.35 -8.25 -6.10 -3.85 -2.20 -4.95 -3.90 -4.95 -7.45 0 -4.20 1.50 -6.70 5.10 -8.50 4.95 -2.50 5.50 -2.55 40.80 -2.75 28.10 -0.20 33.90 -0.10 38.30 0.55 9.15 1.35 12.80 4.45 12.80 10.75 0 3.50 -1.15 5.20 -4.95 7.40 -2.75 1.60 -7.35 4.90 -7.80 5.65 -0.15 0.25 -0.75 0.50 -1.30 0.50 -0.60 0 -1.15 0.50 -1.50 1.35 -0.25 0.70 -1.30 2.40 -2.25 3.70 -2.10 2.90 -4.20 8.50 -5.60 14.95 -2.55 11.85 -8.40 45.35 -12.30 70.75 -0.75 4.70 -1.55 9.70 -1.80 11.20 -0.90 4.85 -0.65 8.70 0.65 10.60 1.45 2.15 3.95 3.40 6.85 3.45 3 0 13.50 -1.75 19.45 -3.25 6.25 -1.60 18.45 -6.45 24.85 -9.90 4.25 -2.30 9.60 -5.70 16.35 -10.35 5.80 -4 8.95 -6.80 20.50 -18.25 10.40 -10.30 15.50 -16.15 25.40 -29 7.50 -9.75 21.25 -32.25 29.35 -48 1.25 -2.45 2.50 -4.55 2.70 -4.65 0.20 -0.10 0.40 -0.45 0.40 -0.75 0 -0.35 1.55 -3.85 3.45 -7.85 5.10 -10.70 6.85 -14.55 7.50 -16.60 0.35 -1.05 0.95 -1.90 1.35 -1.90 0.45 0 0.70 -0.55 0.70 -1.55 0 -0.85 0.45 -2.70 1.05 -4.10 1.30 -3.25 1.70 -4.30 5.40 -13.85 4.10 -10.80 10.15 -29 12.30 -37.30 1.05 -3.80 2.40 -8.95 3.10 -11.45 0.65 -2.45 1.85 -7.55 2.70 -11.25 0.80 -3.70 1.90 -8.55 2.45 -10.75 1.35 -5.65 3.50 -16.40 3.50 -17.70 0 -0.85 0.30 -1.05 1.75 -1.05 l1.75 0 0 2.65 c0 1.40 -0.35 4.20 -0.80 6.10 -1.05 4.65 -1.55 7.15 -2.35 12.25 -0.40 2.35 -0.95 4.90 -1.30 5.65 -0.30 0.80 -0.55 2.60 -0.55 4.10 0 1.80 -0.25 2.95 -0.80 3.50 -0.85 0.85 -2.35 6.95 -2.95 11.95 -0.20 1.65 -0.95 4.05 -1.70 5.50 -0.75 1.40 -1.60 3.70 -1.90 5.05 -0.30 1.40 -0.95 4.20 -1.45 6.25 -0.45 2.05 -1.15 4.40 -1.55 5.15 -0.40 0.80 -1.05 3.30 -1.45 5.65 -0.50 2.75 -1.25 5.10 -2.20 6.75 -0.85 1.35 -1.50 2.60 -1.50 2.75 0 0.15 -0.30 1 -0.70 1.85 -1.55 3.65 -1.80 4.45 -1.80 5.80 0 0.80 -0.55 2.65 -1.25 4.15 -0.70 1.45 -1.25 3.15 -1.25 3.80 0 0.60 -0.35 1.25 -0.80 1.45 -0.80 0.30 -3.25 5.15 -3.90 7.80 -0.15 0.75 -0.65 1.35 -1.05 1.35 -0.45 0 -0.75 0.45 -0.75 1.10 0 2.25 -1.25 7.20 -2.05 8.05 -1.85 2 -7.60 15 -7.95 17.85 -0.20 1.80 -0.45 2.30 -1.25 2.40 -0.60 0.10 -1.30 0.75 -1.60 1.50 -0.35 0.75 -1.25 2.50 -2.10 3.95 -0.80 1.45 -1.80 3.55 -2.10 4.75 -0.35 1.20 -1.15 2.85 -1.75 3.65 -0.60 0.85 -1.25 2 -1.45 2.65 -0.15 0.60 -0.50 1.10 -0.70 1.10 -0.25 0 -1.45 1.75 -2.75 3.95 -1.60 2.70 -2.30 4.45 -2.30 5.75 0 1.55 -0.15 1.80 -1.20 1.80 -1.25 0 -2.50 2 -3.10 4.95 -0.20 0.85 -0.60 1.55 -0.90 1.55 -0.30 0 -1.45 1.65 -2.50 3.60 -1.10 2 -2.55 4.20 -3.25 4.90 -0.70 0.70 -2.10 2.50 -3.20 4 -1.50 2.15 -1.75 2.80 -1.15 2.90 0.55 0.10 0.80 0.75 0.80 1.80 0 2 -1.75 3.80 -3.65 3.80 -0.80 0 -1.35 0.25 -1.35 0.70 0 0.35 -0.35 0.95 -0.75 1.30 -0.50 0.45 -0.75 1.60 -0.75 3.85 l0 3.25 -2.35 -0.15 c-2.30 -0.15 -2.40 -0.10 -2.70 1.45 -0.45 2.20 -1.25 3 -3.50 3.60 -1.30 0.35 -2.35 1.15 -3.30 2.40 -0.75 1 -2.90 3.45 -4.75 5.40 -1.85 2 -3.40 3.95 -3.40 4.40 0 0.40 -0.85 1.20 -1.90 1.75 -2 1 -6.10 4.80 -6.10 5.65 0 0.90 -4.25 5.40 -5.10 5.40 -0.45 0 -1.15 0.40 -1.50 0.90 -0.35 0.50 -2 1.80 -3.65 2.85 -1.65 1.10 -3.70 2.70 -4.60 3.60 -0.85 0.90 -1.85 1.65 -2.15 1.65 -0.35 0 -1.75 0.90 -3.10 2 -1.40 1.10 -2.80 2 -3.10 2 -0.35 0 -1.10 0.70 -1.70 1.50 -0.65 0.85 -1.55 1.50 -2.10 1.50 -0.50 0 -1.25 0.40 -1.60 0.90 -0.85 1.15 -3.10 2.10 -4.85 2.10 -0.80 0 -3.10 0.65 -5.10 1.50 -2.05 0.80 -4.20 1.50 -4.80 1.50 -0.60 0 -1.25 0.25 -1.40 0.50 -0.15 0.30 -0.85 0.50 -1.50 0.50 -0.65 0 -1.35 0.25 -1.50 0.50 -0.15 0.30 -0.85 0.50 -1.55 0.50 -0.85 0 -1.50 0.45 -2.05 1.40 -0.45 0.80 -1.80 1.80 -3.35 2.45 l-2.55 1.15 -31.75 -0.05 c-17.45 -0.05 -32.55 -0.25 -33.50 -0.45z"/>
  <path d="M0 607.25 c0 -1.40 0.20 -1.75 1 -1.75 0.80 0 1 0.35 1 1.75 0 1.40 -0.20 1.75 -1 1.75 -0.80 0 -1 -0.35 -1 -1.75z"/>
  <path d="M0 601.50 c0 -2.65 0.10 -3 1 -3 0.90 0 1 0.35 1 3 0 2.65 -0.10 3 -1 3 -0.90 0 -1 -0.35 -1 -3z"/>
  <path d="M0 584.50 c0 -3.15 0.10 -3.50 1 -3.50 0.90 0 1 0.35 1 3.50 0 3.15 -0.10 3.50 -1 3.50 -0.90 0 -1 -0.35 -1 -3.50z"/>
  <path d="M0 578.75 c0 -1.40 0.20 -1.75 1 -1.75 0.80 0 1 0.35 1 1.75 0 1.40 -0.20 1.75 -1 1.75 -0.80 0 -1 -0.35 -1 -1.75z"/>
  <path d="M0 391 c0 -182.15 0 -182.50 1 -182.50 1 0 1 0.35 1.05 39.65 0.25 205.25 0.30 322.35 0.10 323.75 -0.20 1.15 -0.50 1.60 -1.20 1.60 -0.95 0 -0.95 -3.90 -0.95 -182.50z"/>
  <path d="M286.75 508 c-9.05 -0.15 -16.55 -0.35 -16.60 -0.40 -0.10 -0.05 -0.15 -0.75 -0.15 -1.50 0 -1.70 -1.80 -3.60 -3.40 -3.60 -0.95 0 -1.10 -0.25 -1.10 -2.25 0 -1.20 0.25 -2.80 0.60 -3.50 1.30 -2.90 3.75 -3.40 32.15 -6.75 4.95 -0.55 11.50 -1.35 14.50 -1.75 3.05 -0.40 7.70 -0.95 10.35 -1.25 8.85 -0.95 14.50 -2.25 17.10 -4 2.85 -1.95 3.65 -3.10 4.65 -6.85 1.35 -5.15 -0.05 -12.05 -3.70 -18.30 -3.75 -6.40 -7.30 -9.30 -14.75 -12.10 -1.35 -0.50 -2.40 -1.05 -2.40 -1.25 0 -0.20 -1.40 -0.65 -3.10 -1 -1.75 -0.30 -3.50 -0.90 -3.90 -1.25 -0.40 -0.35 -1.65 -0.90 -2.80 -1.20 -2.85 -0.75 -6.70 -4.90 -8.15 -8.80 -0.95 -2.50 -1.10 -3.80 -0.95 -7.60 0.15 -4.15 0.30 -4.75 1.70 -6.75 1.10 -1.50 2.60 -2.70 4.95 -3.90 3.35 -1.75 3.45 -1.75 9.45 -1.70 5.40 0.05 6.45 0.25 9.80 1.55 4.50 1.75 10.05 5.35 14.25 9.15 10.30 9.45 16.35 12.65 23.75 12.70 7.25 0 13.95 -3.55 23.50 -12.50 4.10 -3.85 9.25 -7.20 14 -9.10 4 -1.65 4.60 -1.75 10.50 -1.80 l6.25 -0.05 3.20 1.75 c2 1.10 3.75 2.55 4.75 3.95 1.40 1.95 1.55 2.55 1.75 6.60 0.20 6.35 -1.10 10 -5 13.70 -1.70 1.60 -3.35 2.75 -3.95 2.75 -0.60 0 -1.70 0.40 -2.40 0.95 -0.75 0.50 -2.60 1.20 -4.10 1.60 -1.50 0.35 -2.95 0.80 -3.25 1 -0.25 0.20 -2.30 1.10 -4.50 2 -6.05 2.50 -8.50 4.50 -11.85 9.70 -4.90 7.50 -6.45 14.85 -4.45 20.85 2.20 6.65 6.85 8.55 25.05 10.40 2.90 0.25 9.65 1.05 15 1.75 5.35 0.70 12 1.50 14.75 1.80 2.75 0.25 6.35 0.70 8 1 1.65 0.30 4.70 0.70 6.75 0.90 4.40 0.50 6.25 1.15 7.10 2.55 0.35 0.55 0.90 1 1.20 1 0.80 0 1.20 1.20 1.20 3.55 0 1.55 -0.20 1.95 -0.90 1.95 -1.30 0 -3.10 2.10 -3.10 3.60 0 1 -0.35 1.45 -1.60 1.90 -1.25 0.45 -20.90 0.65 -82.65 0.75 -44.55 0.05 -88.40 -0.05 -97.50 -0.25z"/>
  <path d="M165.35 455.15 c-0.65 -0.65 -0.35 -5 0.35 -5.60 0.40 -0.35 1.70 -0.55 2.90 -0.45 l2.15 0.15 0.15 2.40 c0.10 1.90 -0.05 2.60 -0.75 3.15 -0.95 0.70 -4.25 0.95 -4.80 0.35z"/>
  <path d="M567.35 455.15 c-0.50 -0.45 -0.40 -4.75 0.10 -5.55 0.25 -0.45 1.20 -0.60 2.60 -0.50 2.15 0.15 2.20 0.20 2.35 2 0.20 2.55 -1.15 4.35 -3.20 4.40 -0.85 0 -1.70 -0.15 -1.85 -0.35z"/>
  <path d="M571 396.40 c0 -1.20 0.45 -4.75 0.95 -7.90 0.55 -3.15 1.10 -7.30 1.30 -9.25 0.15 -1.90 0.65 -5.80 1.05 -8.55 0.40 -2.80 0.70 -6.25 0.70 -7.65 l0 -2.55 1.75 0 1.75 0 0 4.15 c0 3.95 0.10 4.25 1.50 5.85 1.25 1.40 1.50 2.10 1.50 4.15 l0 2.45 -1.95 -0.20 -1.95 -0.15 -0.25 2.25 c-0.15 1.25 -0.50 3.40 -0.75 4.75 -0.30 1.40 -0.90 5.25 -1.40 8.65 l-0.95 6.10 -1.60 0 c-1.60 0 -1.65 -0.05 -1.65 -2.10z"/>
  <path d="M162.80 394.15 c-0.10 -1.05 -0.50 -3.80 -0.80 -6.15 -0.35 -2.35 -0.90 -5.15 -1.30 -6.25 -0.40 -1.15 -0.70 -3.10 -0.70 -4.40 l0 -2.35 -1.75 0 c-1.75 0 -1.75 0 -1.75 -2.25 0 -2.05 0.10 -2.25 1.25 -2.25 1 0 1.25 -0.30 1.55 -1.80 0.30 -1.75 0.10 -6.55 -0.60 -12.85 l-0.35 -2.90 1.95 0.15 1.95 0.15 0.15 2.75 c0.25 4.95 2.55 25.80 3.60 32.50 0.25 1.80 0.50 4.20 0.50 5.40 0 2.05 -0.05 2.10 -1.70 2.10 -1.60 0 -1.75 -0.15 -2 -1.85z"/>
  <path d="M226.90 377.75 c-0.15 -0.15 -3.55 -0.50 -7.55 -0.80 -4 -0.25 -8.35 -0.70 -9.70 -0.95 -1.30 -0.30 -3.75 -0.70 -5.40 -0.95 -10.65 -1.60 -22.15 -6.25 -30 -12.15 -3.90 -2.95 -9.65 -8.55 -12.20 -11.95 -1.90 -2.50 -5.50 -9.85 -6.10 -12.45 -0.75 -3.40 -1.55 -6.25 -2 -7.10 -0.20 -0.45 -0.65 -2.35 -0.95 -4.25 -0.30 -1.85 -0.75 -4.75 -1 -6.40 -0.30 -1.65 -0.60 -4.25 -0.75 -5.75 -0.15 -1.50 -0.60 -4.65 -1 -7 -0.75 -4.50 -1.60 -11.95 -2.25 -20.25 -0.50 -5.80 -1.25 -12.25 -2.05 -16.80 -0.25 -1.75 -0.70 -5.55 -0.95 -8.45 -0.25 -2.90 -0.80 -8.15 -1.25 -11.75 -1.45 -12.15 -2.70 -24.50 -3 -30 l-0.35 -5.50 2.05 -2.60 c2.05 -2.55 4.30 -3.95 9.60 -5.90 3.95 -1.50 12.65 -3.70 14.60 -3.75 1 0 1.85 -0.20 1.85 -0.45 0 -1.65 35.80 -7.05 53.20 -8.05 16.20 -0.90 27.55 -0.55 43.30 1.50 9.95 1.25 25.45 4.35 27.20 5.35 0.20 0.15 3.70 1.40 7.75 2.75 12.25 4.10 25.50 11.20 35.80 19.10 5.50 4.25 10.20 6.60 14.60 7.25 4.50 0.70 32.75 0.70 37.15 0.05 4.80 -0.75 9.60 -3.10 14.75 -7.25 14.15 -11.40 37.20 -21.50 57.50 -25.20 15.95 -2.90 25.95 -3.80 42.75 -3.75 19.10 0 32.80 1.35 55.75 5.45 3.55 0.65 6.55 1.10 6.60 1.05 0.05 -0.05 -0.10 -0.95 -0.35 -2.05 -0.25 -1.10 -0.50 -2.60 -0.50 -3.35 0 -1.25 0.20 -1.40 1.65 -1.40 1.95 0 2.85 1.55 2.85 4.85 0 2 -0.10 2.15 -1.35 2.15 -1.30 0 -1.30 0.05 0.50 0.95 1.05 0.55 2.95 1.05 4.25 1.20 3.20 0.35 6.05 1.05 11.35 2.80 8.20 2.65 9.75 3.55 12.65 7.20 l1.70 2.10 -0.35 5.25 c-0.30 5.40 -1.85 20.90 -2.75 27.50 -0.25 2.05 -0.75 6.90 -1 10.75 -0.30 3.85 -0.75 8 -1.05 9.25 -0.70 3.40 -2.45 17.45 -2.45 20.05 0 1.25 -0.35 4.50 -0.75 7.25 -0.40 2.70 -0.75 6.25 -0.75 7.80 0 1.55 -0.20 3.40 -0.50 4.10 -0.40 1.15 -1.35 7.70 -2.45 17.30 -0.40 3.10 -1.30 6.75 -2.85 11.25 -0.40 1.15 -0.70 2.40 -0.70 2.85 0 1.25 -4.60 10.55 -6.30 12.70 -2.50 3.15 -8.30 8.85 -11.95 11.60 -3.65 2.75 -13.35 7.75 -18.50 9.50 -1.65 0.55 -5 1.35 -7.50 1.80 -2.45 0.45 -5.50 1.05 -6.75 1.35 -1.25 0.30 -4.85 0.75 -8 1 -3.15 0.30 -7.90 0.75 -10.50 1 -7.20 0.80 -35.40 -0.15 -44 -1.50 -17.25 -2.65 -29.25 -5.90 -30.25 -8.20 -0.35 -0.80 -1.10 -1.20 -2.70 -1.40 -1.85 -0.25 -2.55 -0.65 -4.20 -2.60 -1.20 -1.50 -2.35 -2.35 -3.05 -2.35 -0.65 0 -2.15 -1.05 -3.70 -2.65 -2 -2.05 -2.60 -3 -2.60 -4.20 0 -1.30 -0.25 -1.60 -1.45 -1.90 -0.75 -0.15 -2 -0.90 -2.70 -1.65 -2.20 -2.35 -5.50 -8.25 -5.80 -10.35 -0.25 -1.45 -0.55 -2.05 -1.30 -2.15 -1.30 -0.25 -2.25 -1.50 -2.25 -2.90 0 -0.60 -0.30 -1.20 -0.65 -1.35 -0.35 -0.15 -0.95 -1.20 -1.30 -2.40 -0.35 -1.20 -0.85 -2.60 -1.10 -3.05 -0.25 -0.50 -0.45 -1.45 -0.45 -2.15 0 -0.80 -0.30 -1.25 -0.75 -1.25 -0.40 0 -0.75 -0.35 -0.75 -0.75 0 -0.40 -0.20 -0.75 -0.45 -0.75 -0.60 0 -4.05 -6.85 -4.05 -8.05 0 -0.55 -0.20 -1.35 -0.50 -1.85 -1.10 -1.95 -3.50 -8.75 -3.50 -9.90 0 -0.75 -0.30 -1.20 -0.75 -1.20 -0.40 0 -0.75 -0.35 -0.75 -0.80 0 -0.40 -0.30 -1.05 -0.65 -1.45 -0.40 -0.35 -1.40 -3 -2.30 -5.85 -1.90 -6.05 -2.25 -6.90 -6.15 -14.10 -1.60 -3 -2.90 -5.75 -2.90 -6.05 0 -0.85 -1.65 -2.25 -2.65 -2.25 -0.45 0 -1.20 -0.55 -1.60 -1.20 -0.80 -1.15 -1.10 -1.30 -6.60 -2.10 -3.40 -0.50 -8.65 0.70 -10.20 2.40 -0.75 0.75 -1.70 1.40 -2.10 1.40 -0.40 0 -1.75 2 -3.15 4.65 -1.35 2.50 -3.25 6.20 -4.30 8.10 -2.35 4.30 -2.10 3.65 -3.45 8.75 -1.30 5 -1.75 6 -2.65 6 -1.10 0 -2.30 2.30 -2.30 4.50 0 1.85 -0.10 2 -1.35 2.05 -0.80 0 -1.10 0.15 -0.75 0.30 0.90 0.35 0.70 3.10 -0.40 5.60 -0.55 1.20 -1 2.45 -1 2.85 0 0.95 -1.60 4.20 -2.10 4.20 -0.20 0 -0.40 0.45 -0.40 0.95 0 0.75 -0.40 1.05 -1.60 1.15 l-1.65 0.15 0.15 2.65 c0.10 1.45 0 2.60 -0.30 2.60 -0.25 0 -0.65 0.85 -0.85 1.85 -0.45 2.35 -1.65 4.70 -2.80 5.55 -0.60 0.40 -0.95 1.25 -0.95 2.40 0 1.50 -0.15 1.70 -1.25 1.70 -1.10 0 -1.25 0.20 -1.25 1.75 0 1.10 -0.30 1.90 -0.75 2.05 -0.40 0.20 -0.75 0.70 -0.75 1.15 -0.05 1.85 -4.75 8.55 -6.05 8.55 -1.80 0 -2.45 0.60 -2.45 2.20 0 1.25 -0.55 2.10 -2.40 3.95 -1.30 1.30 -2.80 2.35 -3.35 2.35 -0.50 0 -1.95 1.15 -3.20 2.55 -1.85 2 -2.70 2.55 -4.30 2.80 -1.30 0.15 -2.45 0.75 -3.25 1.65 -1.85 2.05 -11.80 5.15 -20.75 6.45 -2.20 0.35 -4.45 0.75 -5 0.85 -2.95 0.75 -8.40 1.35 -15.75 1.75 -10.35 0.65 -30.70 1.10 -31.10 0.70z"/>
  <path d="M575.50 357.30 c0 -1.45 0.15 -3.40 0.30 -4.25 0.30 -1.35 0.50 -1.55 2 -1.55 l1.70 0 0 2.70 c0 1.45 -0.15 3.40 -0.30 4.25 -0.30 1.35 -0.50 1.55 -2 1.55 l-1.70 0 0 -2.70z"/>
  <path d="M169.60 197.65 c0.15 -2.40 0.15 -2.40 2.05 -2.55 l1.90 -0.15 -0.15 2.40 c-0.15 2.40 -0.15 2.40 -2.05 2.55 l-1.90 0.15 0.15 -2.40z"/>
  <path d="M0 180.50 c0 -14.35 0.05 -15 0.95 -15 0.85 0 0.95 0.65 1.30 8.45 0.20 4.65 0.20 11.40 0 15 -0.35 5.95 -0.45 6.55 -1.30 6.55 -0.90 0 -0.95 -0.70 -0.95 -15z"/>
  <path d="M171.50 189.45 c0 -1.95 0.95 -7.85 1.50 -9.20 0.80 -2 1.10 -3.05 1.55 -5.50 0.60 -3.50 1.30 -6.75 1.80 -8.50 0.40 -1.25 0.75 -1.50 2.30 -1.65 1.80 -0.15 1.85 -0.10 1.85 1.45 0 0.90 -0.20 2.30 -0.45 3.15 -0.30 0.85 -1.55 6.10 -2.90 11.70 l-2.40 10.10 -1.60 0 c-1.50 0 -1.65 -0.15 -1.65 -1.55z"/>
  <path d="M562.80 189.40 c-0.15 -0.35 -1.15 -4.60 -2.30 -9.40 -1.10 -4.80 -2.25 -9.45 -2.55 -10.30 -0.25 -0.85 -0.45 -2.35 -0.45 -3.35 0 -1.80 0.05 -1.85 1.75 -1.85 1.50 0 1.75 0.20 2.05 1.40 0.35 1.55 1.75 7.30 2.95 12.10 1.55 6.10 2.20 9.25 2.25 10.65 0 1.20 -0.15 1.35 -1.75 1.35 -1 0 -1.85 -0.30 -1.95 -0.60z"/>
  <path d="M0 142.75 l0 -21.75 1.20 0 1.25 0 -0.05 21.75 -0.05 21.75 -1.20 0 -1.15 0 0 -21.75z"/>
  <path d="M181 155.75 c0 -1.20 0.25 -1.75 0.75 -1.75 0.55 0 0.75 -0.55 0.75 -1.95 0 -1.10 0.35 -2.30 0.75 -2.75 0.40 -0.40 0.75 -1.30 0.75 -2 0 -1.15 0.20 -1.30 1.75 -1.30 1.70 0 1.75 0.05 1.75 2 0 1.10 -0.20 2 -0.50 2 -0.25 0 -0.50 0.50 -0.50 1.15 0 1.90 -0.60 3.35 -1.30 3.35 -0.45 0 -0.70 0.55 -0.70 1.50 0 1.40 -0.15 1.50 -1.75 1.50 -1.65 0 -1.75 -0.10 -1.75 -1.75z"/>
  <path d="M551.35 151.85 c-0.45 -1.50 -0.85 -3.40 -0.85 -4.25 0 -1.45 0.15 -1.60 1.65 -1.60 1.50 0 1.70 0.20 2.50 2.40 0.45 1.30 0.85 3.20 0.85 4.25 0 1.75 -0.10 1.85 -1.65 1.85 -1.55 0 -1.70 -0.15 -2.50 -2.65z"/>
  <path d="M546.15 141.15 c-3.30 -5.05 -3.65 -5.80 -3.65 -7.60 0 -1.40 0.15 -1.55 1.65 -1.50 1.50 0 1.85 0.40 4.75 4.90 2.10 3.35 3.10 5.40 3.10 6.45 0 1.45 -0.15 1.60 -1.65 1.60 -1.50 0 -1.85 -0.35 -4.20 -3.85z"/>
  <path d="M186.50 143 c0 -0.85 0.35 -2.25 0.80 -3.10 0.95 -1.90 4.30 -6.60 4.80 -6.80 0.25 -0.10 0.40 -0.50 0.40 -0.90 0 -0.45 0.55 -0.70 1.75 -0.70 1.65 0 1.75 0.10 1.75 1.75 0 0.95 -0.20 1.75 -0.50 1.75 -0.25 0 -0.50 0.30 -0.50 0.65 0 0.40 -1.20 2.50 -2.60 4.75 -2.40 3.75 -2.80 4.10 -4.25 4.10 -1.50 0 -1.65 -0.15 -1.65 -1.50z"/>
  <path d="M198 126.25 c0 -1.35 0.45 -2.20 2 -3.75 1.55 -1.55 2.40 -2 3.75 -2 1.65 0 1.75 -0.10 1.75 -1.75 0 -1.65 0.10 -1.75 1.75 -1.75 1.65 0 1.75 0.10 1.75 1.75 0 1.65 -0.10 1.75 -1.75 1.75 -1.65 0 -1.75 0.10 -1.75 1.65 0 2.30 -3.60 5.85 -5.90 5.85 -1.50 0 -1.60 -0.10 -1.60 -1.75z"/>
  <path d="M535.05 126.25 c-1.10 -1.25 -1.55 -2.30 -1.55 -3.50 0 -1.65 0.10 -1.75 1.60 -1.75 2.10 0 4.90 3.05 4.90 5.40 0 1.50 -0.10 1.60 -1.70 1.60 -1.30 0 -2.05 -0.40 -3.25 -1.75z"/>
  <path d="M528.65 120.15 c-0.35 -0.10 -0.65 -1 -0.65 -1.95 0 -1.55 0.15 -1.70 1.45 -1.70 2.45 0 3.05 0.45 3.05 2.30 0 1.60 -0.10 1.70 -1.60 1.65 -0.90 0 -1.95 -0.15 -2.25 -0.30z"/>
  <path d="M486.40 100.15 c-1.20 -0.20 -1.40 -0.45 -1.40 -1.95 0 -1.55 0.15 -1.70 1.45 -1.70 0.80 0 2.15 0.15 3 0.30 1.35 0.30 1.55 0.50 1.55 2 0 1.60 -0.10 1.70 -1.60 1.65 -0.90 -0.05 -2.25 -0.20 -3 -0.30z"/>
  <path d="M248.50 98.25 c0 -1.75 0 -1.75 2.25 -1.75 2.25 0 2.25 0 2.25 1.75 0 1.75 0 1.75 -2.25 1.75 -2.25 0 -2.25 0 -2.25 -1.75z"/>
  <path d="M286 91.25 c0 -1.70 0.05 -1.75 2 -1.75 1.95 0 2 0.05 2 1.75 0 1.70 -0.05 1.75 -2 1.75 -1.95 0 -2 -0.05 -2 -1.75z"/>
  <path d="M292 90.25 l0 -1.75 2.50 0 2.50 0 0 1.75 0 1.75 -2.50 0 -2.50 0 0 -1.75z"/>
  <path d="M441.50 90.25 l0 -1.75 2.75 0 2.75 0 0 1.75 0 1.75 -2.75 0 -2.75 0 0 -1.75z"/>
  <path d="M425 88.25 c0 -1.70 0.05 -1.75 2 -1.75 1.95 0 2 0.05 2 1.75 0 1.70 -0.05 1.75 -2 1.75 -1.95 0 -2 -0.05 -2 -1.75z"/>
  <path d="M635.65 2.15 c-0.75 -0.15 -1.15 -0.60 -1.15 -1.20 0 -0.85 0.35 -0.95 3 -0.95 2.85 0 3 0.05 3 1.25 0 1.10 -0.20 1.25 -1.85 1.20 -1.05 -0.05 -2.40 -0.20 -3 -0.30z"/>
 </g>
 <g fill="#1a1e23">
  <path d="M0.05 651.75 c0 -45.25 0.20 -82.35 0.40 -82.45 0.25 -0.20 0.30 -54 0.15 -331.05 0 -64.55 0 -61.30 -0.30 -69.15 -0.10 -3.65 -0.10 -6.50 0.10 -6.40 0.20 0.10 0.40 -8.90 0.40 -20 0.05 -11.45 -0.10 -20.20 -0.35 -20.20 -0.25 0 -0.45 -26.05 -0.45 -61.25 l0 -61.25 318.95 0 c253.85 0 319.05 0.15 319.25 0.65 0.25 0.45 0.35 0.45 0.60 0 0.20 -0.50 10.55 -0.65 49.25 -0.65 l48.95 0 0 367 0 367 -368.50 0 -368.55 0 0.10 -82.25z m410.25 8.10 c1.55 -0.65 2.90 -1.65 3.35 -2.45 0.55 -0.95 1.20 -1.40 2.05 -1.40 0.70 0 1.40 -0.20 1.55 -0.50 0.15 -0.25 0.85 -0.50 1.50 -0.50 0.65 0 1.35 -0.20 1.50 -0.50 0.15 -0.25 0.80 -0.50 1.40 -0.50 0.60 0 2.75 -0.70 4.80 -1.50 2 -0.85 4.30 -1.50 5.10 -1.50 1.75 0 4 -0.95 4.85 -2.10 0.35 -0.50 1.10 -0.90 1.60 -0.90 0.55 0 1.45 -0.65 2.10 -1.50 0.60 -0.80 1.35 -1.50 1.70 -1.50 0.30 0 1.70 -0.90 3.10 -2 1.35 -1.10 2.75 -2 3.10 -2 0.30 0 1.30 -0.75 2.15 -1.65 0.90 -0.90 2.95 -2.50 4.60 -3.60 1.65 -1.05 3.30 -2.35 3.65 -2.85 0.35 -0.50 1.05 -0.90 1.50 -0.90 0.85 0 5.10 -4.50 5.10 -5.40 0 -0.85 4.10 -4.65 6.10 -5.65 1.05 -0.55 1.90 -1.35 1.90 -1.75 0 -0.45 1.55 -2.40 3.40 -4.40 1.85 -1.95 4 -4.40 4.75 -5.40 0.95 -1.30 2 -2.05 3.35 -2.40 2.30 -0.60 3.75 -2.40 3.40 -4.25 -0.15 -0.65 -0.10 -1.20 0.05 -1.15 0.60 0.10 2.30 -0.80 2.90 -1.55 0.50 -0.70 0.60 -0.60 0.90 0.60 0.20 0.75 0.55 1.35 0.80 1.35 0.60 0 0.55 -2.35 -0.05 -2.75 -0.80 -0.50 -0.60 -1.50 0.75 -3.45 0.70 -1 1.25 -2.25 1.25 -2.70 0 -0.50 0.60 -1.80 1.40 -2.95 3 -4.55 5.55 -8 6.95 -9.45 0.80 -0.80 2.45 -3.25 3.60 -5.35 1.15 -2.15 2.35 -3.75 2.60 -3.55 0.25 0.15 0.40 0.10 0.35 -0.15 -0.15 -0.60 1.15 -4.20 2 -5.65 0.45 -0.70 0.60 -1.05 0.30 -0.85 -0.25 0.25 -2.15 3.10 -4.20 6.35 -5.35 8.45 -9.30 14.30 -11.95 17.75 -7.20 9.40 -14.30 17.85 -19.80 23.65 l-3.55 3.70 0.20 -2.05 c0.15 -1.65 0.65 -2.45 2.80 -4.45 1.40 -1.35 2.80 -2.90 3.10 -3.40 0.30 -0.55 1.15 -1 1.90 -1.10 1.05 -0.15 1.30 -0.45 1.30 -1.50 0.05 -1.50 3.05 -5.10 4.25 -5.10 0.45 0 0.75 -0.50 0.75 -1.30 0 -0.85 0.30 -1.40 1 -1.55 0.55 -0.15 1 -0.70 1 -1.25 0 -0.55 0.45 -1.10 1 -1.25 0.55 -0.15 1 -0.70 1 -1.20 0 -0.50 0.45 -1.20 1 -1.55 0.55 -0.35 1 -0.90 1 -1.25 0 -0.35 0.35 -0.65 0.75 -0.65 0.45 0 0.75 -0.45 0.75 -1.05 0 -0.60 0.40 -1.15 1 -1.30 0.55 -0.15 1 -0.70 1 -1.20 0 -0.55 0.25 -0.95 0.50 -0.95 0.30 0 0.50 -0.35 0.50 -0.75 0 -0.40 0.25 -0.75 0.50 -0.75 0.30 0 0.50 -0.35 0.50 -0.75 0 -0.40 0.20 -0.75 0.45 -0.75 0.25 0 0.60 -0.55 0.75 -1.25 0.20 -0.70 0.65 -1.25 1.05 -1.25 0.40 0 0.75 -0.35 0.75 -0.80 0 -0.90 3.40 -6.30 4.10 -6.60 0.20 -0.10 0.40 -0.50 0.40 -0.90 0 -0.40 0.25 -0.70 0.50 -0.70 0.30 0 0.50 -0.25 0.50 -0.55 0 -0.85 4 -7.35 4.70 -7.60 0.35 -0.15 0.80 -0.95 0.95 -1.75 0.15 -0.80 0.65 -1.85 1.10 -2.25 0.40 -0.45 0.75 -1 0.75 -1.30 0 -0.30 0.15 -0.55 0.40 -0.55 0.20 0 0.75 -1 1.25 -2.25 0.55 -1.25 1.10 -2.25 1.30 -2.25 0.20 0 0.65 -0.80 1 -1.75 0.40 -1.20 0.95 -1.75 1.60 -1.75 0.70 0 0.95 -0.35 0.95 -1.50 0 -0.90 2.45 -6.40 6.15 -13.85 6.90 -14 8.30 -17.05 11.60 -25.15 3.10 -7.60 10 -25.75 11.75 -30.75 1.55 -4.50 7.25 -22.30 7.70 -24.25 0.20 -0.70 1 -3.70 1.80 -6.75 2.55 -9.75 3.85 -14.90 4.95 -20 0.65 -2.75 1.45 -6.35 1.85 -8 1.15 -4.95 4.05 -20.20 4.70 -24.50 0.30 -2.20 0.75 -5.25 1 -6.75 0.25 -1.50 0.60 -4.05 0.75 -5.60 0.20 -1.60 0.45 -2.90 0.65 -2.90 0.20 0 0.35 -1.40 0.40 -3.10 0 -1.75 0.40 -7.20 0.85 -12.15 0.45 -4.95 0.85 -9.20 0.85 -9.50 0 -0.25 -1.90 1.35 -4.30 3.65 -2.35 2.25 -4.55 4.10 -4.85 4.10 -0.35 0 -0.90 0.45 -1.25 1 -0.35 0.55 -0.80 1 -1.10 1 -0.25 0 -1.10 0.60 -1.85 1.30 -2.05 1.95 -13.75 7.50 -18.75 8.90 -8.90 2.55 -18.10 4 -28.75 4.60 -5.75 0.30 -6.65 0.25 -6.65 -0.45 0 -1.05 1.30 -1.30 9.35 -1.85 3.85 -0.30 8.15 -0.75 9.50 -1 1.30 -0.30 3.85 -0.75 5.60 -1 4.40 -0.70 9.35 -1.85 12.05 -2.85 4.95 -1.80 14.45 -6.75 17.75 -9.25 3.65 -2.75 9.45 -8.45 11.95 -11.60 1.70 -2.15 6.30 -11.45 6.30 -12.70 0 -0.45 0.30 -1.70 0.70 -2.85 1.45 -4.30 2.40 -7.95 2.60 -10.45 0.15 -1.40 0.45 -3.45 0.70 -4.55 0.25 -1.10 0.60 -3.70 0.75 -5.75 0.20 -2.05 0.65 -5.10 1 -6.75 0.40 -1.65 0.80 -5.15 0.95 -7.75 0.20 -2.60 0.50 -5.75 0.80 -7 0.25 -1.25 0.45 -3.45 0.50 -4.85 0 -3.70 2 -19.45 2.65 -21.15 0.15 -0.40 0.40 -3.25 0.60 -6.30 0.15 -3.10 0.40 -6.10 0.45 -6.75 0.75 -4.95 3 -25.90 3.50 -32.75 0.30 -3.45 0.25 -3.65 -1.35 -5.60 -2 -2.50 -3.55 -3.75 -6.10 -4.85 -2.90 -1.25 -12.35 -4.25 -13.35 -4.25 -0.45 0 -1.45 -0.25 -2.15 -0.60 -1.10 -0.50 -1.40 -0.40 -2.40 0.50 -1.15 1.10 -2.60 0.80 -2.60 -0.50 0 -0.80 -2.90 -2.25 -5.25 -2.60 -0.95 -0.15 -4.10 -0.75 -7 -1.30 -2.90 -0.55 -5.30 -1 -5.35 -1 -0.10 0 -0.15 -0.35 -0.15 -0.75 0 -0.85 2.25 -1 5 -0.30 3.35 0.85 9 1.70 9.30 1.45 0.45 -0.50 -1.70 -11.15 -4.85 -23.90 -2.20 -8.75 -3.65 -13.60 -5.20 -17 -1.20 -2.60 -2.75 -6.45 -3.45 -8.55 -0.70 -2.10 -1.95 -5 -2.75 -6.40 -0.85 -1.45 -1.55 -2.80 -1.55 -3.05 0 -0.30 -0.25 -0.50 -0.50 -0.50 -0.30 0 -0.80 -0.60 -1.15 -1.35 -0.30 -0.80 -0.70 -1.50 -0.85 -1.65 -0.15 -0.15 -0.85 -1.15 -1.50 -2.25 -0.65 -1.10 -2.35 -3.40 -3.85 -5.10 -1.45 -1.65 -2.65 -3.35 -2.65 -3.75 0 -0.35 -0.60 -1.05 -1.35 -1.50 -0.80 -0.45 -2.65 -1.95 -4.15 -3.35 -1.50 -1.40 -2.85 -2.55 -3.05 -2.55 -0.15 0 -0.70 -0.50 -1.25 -1.05 -3.25 -3.65 -18.45 -11.60 -28.45 -14.85 -3.30 -1.10 -9.05 -2.70 -12.75 -3.60 -3.70 -0.85 -7.55 -1.75 -8.50 -2 -4.30 -1.10 -27 -4.90 -35.75 -5.95 -2.45 -0.30 -7.30 -0.90 -10.75 -1.30 -17.25 -2.15 -38.15 -3.25 -61.25 -3.25 -22.95 0 -42.55 1.05 -60.75 3.25 -3.45 0.40 -8.25 1 -10.75 1.30 -9.80 1.15 -29.95 4.60 -38.50 6.55 -14.45 3.30 -22.20 5.85 -31.70 10.45 -7.90 3.85 -12.75 6.95 -17.30 11.05 -1.65 1.45 -3.95 3.30 -5.10 4.05 -1.20 0.75 -2.15 1.70 -2.15 2.15 0 0.45 -1.40 2.40 -3.10 4.40 -1.75 1.95 -3.60 4.40 -4.15 5.45 -0.55 1 -1.15 1.85 -1.35 1.85 -0.25 0 -0.40 0.35 -0.40 0.75 0 0.40 -0.20 0.75 -0.50 0.75 -0.25 0 -0.50 0.35 -0.50 0.75 0 0.40 -0.20 0.75 -0.50 0.75 -0.25 0 -0.50 0.30 -0.50 0.70 0 0.40 -0.15 0.80 -0.35 0.90 -0.65 0.25 -3 5.35 -4.55 9.90 -0.85 2.35 -2.30 5.95 -3.25 8 -1.65 3.55 -6.30 20.70 -8.10 30 -0.40 2.05 -1 5.05 -1.30 6.65 -0.35 1.60 -0.45 3 -0.25 3.20 0.15 0.15 2.40 -0.10 4.95 -0.55 2.50 -0.50 5.95 -1.10 7.60 -1.35 1.65 -0.20 4.45 -0.65 6.25 -0.95 1.80 -0.30 4.95 -0.75 7 -1 17.05 -2.25 21 -2.50 21 -1.30 0 0.80 -1.50 1.30 -4.30 1.30 -4.90 0 -33.95 4.25 -42.50 6.25 -3.05 0.70 -3.50 0.95 -3.50 1.90 0.05 1.35 -1.45 1.75 -2.65 0.65 -0.85 -0.75 -1.30 -0.70 -6.35 0.65 -10.40 2.80 -14.45 4.70 -17.20 8.15 l-2.05 2.55 0.30 3.80 c0.40 5.10 2.10 21.35 3.05 29.05 0.40 3.45 0.95 8.60 1.20 11.50 0.25 2.90 0.70 6.70 0.95 8.45 0.80 4.55 1.55 11 2.05 16.80 0.70 8.35 1.50 15.80 2.25 20.25 0.40 2.35 0.85 5.70 1.05 7.50 0.15 1.80 0.45 4.05 0.70 5 0.25 0.95 0.55 3.15 0.70 4.85 0.30 3.05 0.50 3.85 1.30 5.90 0.40 1.10 1.30 4.45 1.95 7.25 0.60 2.60 4.20 9.95 6.10 12.45 4.15 5.45 14.90 14.85 16.35 14.30 0.35 -0.15 0.50 0 0.35 0.25 -0.20 0.30 2.20 1.70 5.45 3.30 4.25 2 6.15 2.65 7.15 2.45 1 -0.20 1.15 -0.15 0.45 0.15 -1.35 0.60 3.70 2.15 5.85 1.80 1.05 -0.20 1.40 -0.15 0.95 0.20 -0.75 0.50 0.40 0.85 5.65 1.65 1.65 0.20 4.10 0.65 5.40 0.95 1.35 0.25 5.65 0.70 9.50 1 8.05 0.55 9.35 0.80 9.35 1.90 0 0.65 -0.85 0.70 -6.60 0.40 -10.60 -0.55 -19.90 -2.05 -28.80 -4.60 -5 -1.40 -16.70 -6.95 -18.75 -8.90 -0.75 -0.70 -1.60 -1.30 -1.85 -1.30 -0.30 0 -0.75 -0.45 -1.10 -1 -0.35 -0.55 -0.90 -1 -1.25 -1 -0.35 0 -2.55 -1.85 -4.90 -4.15 -3 -2.95 -4.25 -3.90 -4.25 -3.25 0 0.50 0.20 3 0.45 5.55 1.70 16.70 1.75 17.90 1 18.40 -0.60 0.35 -0.55 0.45 0.15 0.45 0.65 0 0.90 0.70 1.15 3.40 0.15 1.85 0.50 4.35 0.75 5.60 0.25 1.25 0.90 5.30 1.50 9 1 6.45 1.90 11 4 20.50 0.50 2.35 1.40 6.50 2 9.25 1.05 4.75 2.10 8.85 4.75 19 2.40 9.30 3.25 12.20 5.70 19.75 1.40 4.25 2.55 8.25 2.55 8.90 0 0.60 0.25 1.10 0.50 1.10 0.30 0 0.50 0.25 0.50 0.55 0 1.25 13.05 35.05 15.70 40.70 4.65 9.90 14.60 30.05 14.95 30.15 0.20 0.10 0.35 0.60 0.35 1.15 0 0.50 0.20 0.95 0.45 0.95 0.25 0 0.75 0.80 1.10 1.75 0.35 0.95 0.80 1.75 1 1.75 0.20 0 0.75 1 1.30 2.25 0.50 1.25 1.05 2.25 1.30 2.25 0.20 0 0.35 0.25 0.35 0.55 0 0.30 0.35 0.85 0.75 1.25 0.40 0.45 0.90 1.35 1.05 2.10 0.20 0.75 0.85 1.85 1.45 2.45 0.60 0.65 1.65 2.20 2.30 3.50 0.65 1.35 1.35 2.50 1.60 2.55 0.20 0.10 0.35 0.50 0.35 0.85 0 0.35 0.20 0.75 0.40 0.85 0.65 0.25 7.10 10.10 7.10 10.80 0 0.35 0.25 0.60 0.50 0.60 0.30 0 0.50 0.35 0.50 0.75 0 0.40 0.25 0.75 0.50 0.75 0.30 0 0.50 0.35 0.50 0.75 0 0.40 0.25 0.75 0.50 0.75 0.30 0 0.50 0.30 0.50 0.70 0 0.40 0.35 0.80 0.75 1 0.40 0.15 0.75 0.85 0.75 1.55 0 0.90 0.25 1.25 1 1.25 0.55 0 1 0.30 1 0.70 0 0.40 0.35 0.80 0.75 1 0.40 0.15 0.75 0.80 0.75 1.50 0 0.90 0.30 1.25 1.15 1.40 0.70 0.10 1.15 0.55 1.25 1.20 0.10 0.60 0.60 1.20 1.15 1.35 0.55 0.15 0.95 0.70 0.95 1.25 0 0.55 0.45 1.10 1 1.25 0.60 0.15 1 0.70 1 1.30 0 0.60 0.30 1.05 0.65 1.05 1 0 2.35 1.90 2.35 3.25 0 0.95 0.25 1.25 1.15 1.25 1.40 0 2.35 0.85 2.35 2.10 0 0.50 0.30 0.90 0.65 0.90 1 0 4.85 4.30 4.85 5.45 0 0.60 0.40 1.70 0.85 2.45 1.30 2.10 -3.25 -2.35 -8.30 -8.10 -3.70 -4.30 -10.15 -12.15 -15.30 -18.65 -2.35 -2.95 -8.65 -12.30 -12.70 -18.75 -3.55 -5.70 -4.80 -7.35 -3.40 -4.50 0.35 0.75 0.95 2.30 1.35 3.50 0.35 1.15 0.85 2.10 1.05 2.10 0.20 0 1.55 1.90 2.95 4.25 1.40 2.35 3 4.50 3.55 4.75 0.50 0.30 0.95 0.75 0.95 1 0 0.30 1.40 2.35 3.05 4.60 1.70 2.30 3.40 4.95 3.85 5.90 0.40 0.95 1.20 2.60 1.75 3.65 0.75 1.50 0.85 2.20 0.45 3 -0.30 0.60 -0.70 1.60 -0.85 2.25 -0.50 1.70 0.70 1.35 1.35 -0.40 0.25 -0.85 0.75 -1.45 1.05 -1.35 0.85 0.25 2.55 3.25 3.85 6.70 0.80 2.10 1.85 3 2.60 2.25 1.15 -1.15 2.95 -0.65 4.70 1.25 0.95 1 1.70 2.05 1.70 2.30 0 0.20 1.05 1.55 2.40 2.95 1.30 1.35 2.55 2.85 2.80 3.30 0.25 0.45 1 1.35 1.65 1.95 0.60 0.60 1.15 1.45 1.15 1.90 0 0.90 0.55 1 1.35 0.20 0.95 -0.95 1.90 -0.20 4.80 3.65 3.20 4.20 6.45 7.45 8.60 8.50 1.55 0.80 4.25 2.20 6 3.10 0.55 0.30 1.10 0.65 1.25 0.80 0.15 0.15 1 0.70 1.95 1.20 2.65 1.50 1.40 0.20 -2.30 -2.40 -6.15 -4.25 -6.85 -4.85 -9.40 -7.35 -1.40 -1.35 -2.75 -2.45 -3.05 -2.45 -0.25 0 -2.50 -2 -4.95 -4.50 l-4.50 -4.50 1.75 0 c1.50 0 2.30 0.55 5.65 3.80 2.10 2.10 3.85 4 3.85 4.25 0 0.25 0.40 0.45 0.85 0.45 1.10 0 2.65 1.45 2.65 2.55 0 0.55 0.45 0.95 1.15 1.05 0.80 0.10 1.15 0.55 1.25 1.55 0.15 1.20 0.40 1.35 1.90 1.35 1.40 0 1.80 0.25 2.20 1.30 0.30 0.70 0.95 1.40 1.50 1.55 0.55 0.15 1 0.45 1 0.70 0 0.25 0.55 0.45 1.25 0.45 0.70 0 2.35 0.75 3.65 1.65 1.30 0.90 3.80 2.55 5.60 3.60 1.80 1.05 3.35 2.15 3.40 2.35 0.10 0.20 0.60 0.40 1.15 0.40 0.50 0 0.95 0.25 0.95 0.50 0 0.30 0.45 0.50 0.95 0.50 0.55 0 1.05 0.15 1.15 0.40 0.10 0.20 3.20 1.60 6.90 3.10 3.70 1.45 6.85 2.85 7 3.05 0.15 0.15 0.95 0.45 1.75 0.60 0.85 0.15 3.75 0.80 6.50 1.50 5 1.20 9.40 2.05 13.85 2.65 1.30 0.15 2.45 0.60 2.60 1 0.20 0.45 1.10 0.70 2.80 0.70 2.10 0 2.50 -0.15 2.50 -0.90 0 -0.60 0.65 -1.15 1.75 -1.60 0.95 -0.40 1.75 -1 1.75 -1.35 0 -0.35 0.25 -0.65 0.50 -0.65 0.30 0 0.50 -0.35 0.50 -0.75 0 -0.40 0.45 -0.75 1 -0.75 2.55 0 -0.70 4.90 -3.95 5.95 -2.40 0.75 -7.55 0.70 -12.75 -0.25 -2.40 -0.40 -4.80 -0.70 -5.25 -0.60 -0.45 0.10 0.90 0.45 2.95 0.80 2.05 0.35 4.55 0.85 5.50 1.05 0.95 0.25 15.35 0.45 32 0.45 30 0.05 30.25 0 32.80 -1.05z m-76.90 -2.10 c0.10 -0.10 -1 -0.40 -2.50 -0.70 -1.45 -0.35 -3.20 -0.75 -3.90 -0.90 -1.25 -0.30 -1.25 -0.30 0.20 0.95 1.25 1.05 1.85 1.20 3.75 1 1.25 -0.10 2.35 -0.30 2.45 -0.35z m-7.95 -1.95 c-0.10 -0.10 -3 -1.25 -6.45 -2.50 -8 -3 -17.15 -7.65 -24 -12.15 l-1.25 -0.85 1.20 1.35 c0.70 0.75 1.40 1.35 1.65 1.35 0.25 0 1.35 0.60 2.55 1.35 1.15 0.80 2.80 1.75 3.60 2.15 0.85 0.40 3.45 2.05 5.75 3.60 2.75 1.85 4.95 2.95 6.20 3.10 1.05 0.15 2.15 0.45 2.50 0.70 0.70 0.55 2.55 1.10 4.80 1.40 0.95 0.15 1.80 0.35 1.95 0.45 0.10 0.15 0.55 0.25 0.95 0.25 0.45 0 0.65 -0.10 0.55 -0.20z m173.10 -64.10 l1.20 -1.35 -1.35 0.90 c-0.80 0.45 -1.40 1.05 -1.40 1.30 0 0.70 0.25 0.55 1.55 -0.85z m-273.30 -28.75 c-0.45 -0.85 -0.95 -1.45 -1.10 -1.30 -0.25 0.25 1.25 2.85 1.65 2.85 0.15 0 -0.15 -0.70 -0.55 -1.55z m290.30 -3.70 c1.70 -2.90 3.25 -5.25 3.50 -5.25 0.20 0 0.55 -0.50 0.75 -1.10 0.15 -0.65 0.80 -1.80 1.40 -2.65 0.95 -1.30 2.45 -5.25 2.15 -5.60 -0.10 -0.05 -1.55 2.55 -3.30 5.75 -1.75 3.20 -3.60 6.40 -4.05 7.10 -1.45 2.15 -4.10 7 -3.80 7 0.15 0 1.65 -2.35 3.35 -5.25z m-292.60 -0.10 c-2.90 -4.85 -8.60 -15.35 -13.55 -25.15 -3 -5.90 -5.35 -10.40 -5.20 -10 0.55 1.75 3.70 8.45 4.95 10.55 0.75 1.25 1.35 2.65 1.35 3.10 0 0.45 0.25 0.95 0.50 1.10 0.95 0.60 4.15 7.50 4.30 9.25 0.05 0.95 0.35 1.80 0.65 1.90 0.30 0.10 0.55 0.50 0.55 0.90 0 0.40 0.35 0.70 0.75 0.70 0.40 0 0.60 0.30 0.45 0.65 -0.15 0.40 0.30 1.25 1 1.90 0.70 0.65 1.30 1.45 1.30 1.70 0.05 0.60 3.40 5.25 3.80 5.25 0.15 0 -0.20 -0.85 -0.85 -1.85z m303.30 -19.40 c0.70 -1.25 1.25 -2.50 1.15 -2.70 -0.10 -0.25 -0.75 0.75 -1.55 2.25 -1.65 3.30 -1.45 3.55 0.40 0.45z m6.20 -12.55 c3.65 -7.85 3.15 -7.70 -0.70 0.25 -1.80 3.65 -3.25 6.80 -3.25 6.95 0 0.80 1.55 -2.10 3.95 -7.20z m-329.65 -7.05 c-0.40 -0.75 -0.75 -1.25 -0.80 -1.05 0 0.60 1.15 2.90 1.35 2.70 0.15 -0.10 -0.10 -0.85 -0.55 -1.65z m335.80 -4.55 c0.20 -0.10 0.30 -0.35 0.20 -0.55 -0.15 -0.20 0.05 -1.45 0.45 -2.80 0.90 -2.85 0.65 -3.65 -0.25 -0.95 -0.35 1.05 -1.20 3.15 -1.95 4.70 -1.80 3.90 -1.80 4 -0.25 1.75 0.75 -1.10 1.55 -2.10 1.80 -2.15z m-338.70 -2.10 c-1.15 -2.75 -2.15 -4.90 -2.25 -4.80 -0.15 0.10 0.35 1.65 1.05 3.40 0.70 1.80 1.30 3.40 1.30 3.60 0 0.35 1.50 2.80 1.75 2.80 0.10 0 -0.75 -2.25 -1.85 -5z m-3.10 -7.35 c-1.10 -2.95 -2.25 -5.45 -2.30 -4.85 0 0.30 0.40 1.55 0.95 2.75 0.50 1.20 1.05 2.60 1.20 3.10 0.20 0.45 0.45 0.85 0.55 0.85 0.15 0 -0.05 -0.85 -0.40 -1.85z m348.90 -8.30 c0.45 -0.20 0.80 -0.85 0.80 -1.45 0 -0.65 0.50 -2.15 1.10 -3.40 0.55 -1.25 1 -2.75 0.95 -3.40 0 -0.65 0.30 -1.95 0.70 -2.95 0.40 -0.95 0.75 -2.05 0.70 -2.35 0 -0.60 -1.05 1.80 -4.30 10.20 -2.50 6.40 -3.25 8.80 -1.75 5.70 0.55 -1.15 1.35 -2.20 1.80 -2.35z m-352.20 -0.30 c0 -0.25 -0.35 -0.80 -0.75 -1.20 -0.40 -0.40 -0.60 -0.85 -0.45 -1 0.20 -0.15 -0.75 -3 -2.05 -6.35 -1.30 -3.30 -2.50 -5.95 -2.60 -5.80 -0.15 0.10 0 0.65 0.30 1.20 0.70 1.35 0.70 1.75 -0.05 1.35 -0.35 -0.20 -0.30 -0.05 0.15 0.35 0.95 0.80 1.55 2.30 0.95 2.50 -0.55 0.20 0.75 3.95 1.60 4.45 0.35 0.25 0.50 0.45 0.30 0.45 -0.70 0 1.20 4.50 1.90 4.50 0.40 0 0.70 -0.20 0.70 -0.45z m-8.05 -21.85 c-2.60 -7.55 -3 -8.25 -2.65 -4.45 0.30 2.95 1.15 5.25 3.15 8.70 0.60 1.05 0.95 2.25 0.80 3 l-0.25 1.30 0.50 -1.30 c0.45 -1.05 0.15 -2.35 -1.55 -7.25z m365.75 6.05 c0.15 -0.65 1 -2.35 1.80 -3.75 0.95 -1.60 1.70 -3.95 2.20 -6.70 0.40 -2.35 1.05 -4.85 1.45 -5.65 0.95 -1.85 2.55 -8.60 2.15 -9 -0.15 -0.20 -0.30 0.05 -0.30 0.50 0 0.60 -7.05 22.35 -8.40 25.80 -0.15 0.40 -0.05 0.60 0.25 0.40 0.30 -0.20 0.70 -0.90 0.85 -1.60z m-370.15 -19.10 c-0.80 -2.50 -1.65 -5.35 -1.85 -6.35 -0.15 -1 -0.45 -1.75 -0.60 -1.60 -0.40 0.45 1.95 9.45 3 11.65 1.15 2.30 0.90 0.70 -0.55 -3.70z m-12.40 -9.40 c1.15 -0.85 0.90 -2.50 -0.35 -2.50 -1.15 0 -2.05 1.35 -1.65 2.45 0.40 0.95 0.80 1 2 0.05z m402.10 -2.25 c-0.55 -0.90 -1.75 -0.50 -2.05 0.70 -0.45 1.95 0.25 2.50 1.35 1.05 0.55 -0.65 0.85 -1.45 0.70 -1.75z m-9.20 -1.85 c0.65 -1.35 1.10 -2.80 1.05 -3.30 -0.10 -0.50 0.05 -1.20 0.30 -1.50 0.25 -0.35 0.30 -1.15 0.15 -1.80 -0.25 -0.95 -0.65 0 -1.65 3.85 -0.70 2.80 -1.20 5.10 -1.15 5.10 0.10 0 0.70 -1.05 1.30 -2.35z m-385.55 -4.75 c-1.65 -6.35 -2.40 -8.65 -2.45 -7.30 -0.05 0.50 0.25 1.85 0.65 3 0.40 1.20 0.80 3.10 0.95 4.25 0.25 1.95 1.85 6.30 2.20 5.95 0.10 -0.05 -0.50 -2.75 -1.35 -5.90z m388.15 -6.40 c0.20 -1.10 0.15 -1.45 -0.10 -1 -0.60 1.05 -1.25 4.50 -0.65 3.50 0.25 -0.40 0.60 -1.55 0.75 -2.50z m-392.15 -10.05 c-0.60 -2.60 -1.50 -6.55 -2.05 -8.80 -0.55 -2.25 -1.20 -5.30 -1.45 -6.75 -1 -5.55 -2.50 -11.65 -2.25 -9.15 0.15 1.40 0.50 3.65 0.80 5 0.25 1.40 0.60 3.20 0.70 4 0.10 0.85 0.55 2.85 0.95 4.50 0.45 1.65 0.80 3.70 0.80 4.50 0 0.85 0.30 2.05 0.65 2.75 0.40 0.75 0.85 2.75 1 4.45 0.30 2.80 1.10 4.95 1.70 4.40 0.10 -0.10 -0.30 -2.30 -0.85 -4.90z m394.95 0.30 c0 -1.45 0.30 -3.45 0.70 -4.35 0.40 -0.90 0.85 -3.10 1 -4.90 0.35 -3.85 0 -2.80 -1.85 5.60 -0.70 3.20 -1.40 6.45 -1.60 7.25 l-0.35 1.40 1.05 -1.15 c0.70 -0.85 1 -1.85 1.05 -3.85z m3.05 -15.95 c0 -1.95 -0.30 -1.50 -0.65 0.95 -0.20 1.35 -0.15 1.75 0.15 1.25 0.25 -0.40 0.50 -1.40 0.50 -2.20z m1.50 -7.10 c0.35 -1.95 0.50 -3.85 0.35 -4.25 -0.15 -0.40 -0.30 0 -0.30 0.80 -0.05 0.85 -0.25 2.30 -0.50 3.25 -0.75 2.85 -1.05 5.30 -0.60 4.50 0.20 -0.40 0.70 -2.35 1.05 -4.30z m-406.50 -11.95 c0 -0.70 -0.20 -1.25 -0.45 -1.25 -0.20 0 -0.30 0.55 -0.15 1.25 0.10 0.70 0.30 1.25 0.40 1.25 0.10 0 0.20 -0.55 0.20 -1.25z m409.40 -6.75 c0 -1.10 -0.05 -1.10 -0.40 0.25 -0.20 0.85 -0.40 2.05 -0.40 2.75 0 1.10 0.05 1.10 0.40 -0.25 0.20 -0.80 0.40 -2.05 0.40 -2.75z m-410.15 1.40 c-0.20 -1.20 -0.55 -2.35 -0.75 -2.55 -0.20 -0.25 -0.15 0.70 0.15 2.10 0.60 3.10 1.10 3.40 0.60 0.45z m-1.20 -8.95 c-0.30 -2.60 -0.75 -6.45 -1 -8.60 -0.50 -4.35 -1.30 -6.10 -0.95 -2 0.15 1.45 0.05 2.50 -0.20 2.35 -0.20 -0.15 -0.40 0.10 -0.40 0.50 0 0.50 -0.45 0.80 -1.25 0.80 -0.80 0 -1.25 0.30 -1.25 0.80 0 0.60 0.30 0.75 1.15 0.55 1.85 -0.50 2.55 0.35 2.65 3.25 0.15 2.55 1.25 7.55 1.60 7.20 0.10 -0.10 -0.05 -2.30 -0.35 -4.85z m412.65 0.20 c0.25 -1.25 0.45 -5.15 0.30 -6.15 -0.20 -1.25 -0.95 3.10 -0.95 5.45 -0.05 2.20 0.30 2.55 0.65 0.70z m4.30 -4.55 c0 -0.50 -0.65 -1.70 -1.50 -2.60 l-1.50 -1.70 0.05 2.25 c0 1.55 0.15 1.90 0.40 1.20 0.35 -0.90 0.45 -0.90 1.30 0.40 1 1.60 1.25 1.65 1.25 0.45z m-3.05 -8.80 c0.05 -2.20 -0.05 -3.85 -0.15 -3.75 -0.10 0.10 -0.30 2.35 -0.45 4.95 -0.15 2.85 -0.10 4.35 0.15 3.75 0.25 -0.55 0.45 -2.80 0.45 -4.95z m-416.50 -11 c-0.45 -0.40 -0.50 -0.35 -0.25 0.35 0.15 0.50 0.35 1.75 0.40 2.75 0.05 1.75 0.10 1.75 0.25 -0.35 0.15 -1.30 -0.05 -2.40 -0.40 -2.75z m417.45 -0.30 c0 -1.60 -0.05 -1.65 -0.40 -0.50 -0.20 0.70 -0.40 2.05 -0.40 3 0 1.60 0.05 1.65 0.40 0.50 0.20 -0.70 0.40 -2.05 0.40 -3z m-405.90 -157.30 c0 -0.40 -0.20 -0.60 -0.50 -0.45 -0.25 0.15 -0.50 0.65 -0.50 1.05 0 0.40 0.25 0.60 0.50 0.45 0.30 -0.15 0.50 -0.65 0.50 -1.05z m392.45 -10.80 c-0.85 -4.05 -1 -4.50 -1.25 -4.25 -0.35 0.35 1.05 6.35 1.50 6.35 0.10 0 0 -0.95 -0.25 -2.10z m-389.45 -4.35 c0 -1.90 -0.90 0.50 -1.15 2.95 l-0.30 2.75 0.70 -2.50 c0.40 -1.35 0.75 -2.85 0.75 -3.20z m387.75 -2.55 c-0.45 -2.05 -0.85 -1.65 -0.45 0.45 0.20 0.85 0.45 1.50 0.55 1.35 0.15 -0.10 0.10 -0.95 -0.10 -1.80z m-385.30 -7.25 c0 -0.25 -0.30 0.05 -0.70 0.75 -0.40 0.70 -0.70 2.05 -0.70 3 0.05 1.65 0.05 1.65 0.75 -0.75 0.35 -1.35 0.70 -2.70 0.65 -3z m383.80 1 c-1.20 -4.85 -1.60 -4.45 -0.50 0.50 0.50 2.10 1 3.70 1.15 3.55 0.15 -0.20 -0.15 -2 -0.65 -4.05z m-383.25 -3.60 c0 -1.50 -0.45 -1.35 -0.75 0.30 -0.10 0.55 0 1.05 0.30 1.05 0.25 0 0.45 -0.60 0.45 -1.35z m381.75 -2.65 c-0.20 -0.60 -0.45 -0.95 -0.60 -0.85 -0.15 0.15 -0.10 0.75 0.10 1.35 0.20 0.60 0.45 0.95 0.60 0.85 0.15 -0.15 0.10 -0.75 -0.10 -1.35z m-6.25 -16.25 c-0.80 -2.35 -1.15 -2 -0.40 0.40 0.30 1 0.65 1.75 0.80 1.65 0.10 -0.15 -0.05 -1.05 -0.40 -2.05z m-363.40 -10.60 c2.10 -3.20 3.10 -4.90 2.60 -4.40 -1.40 1.40 -4.50 6.25 -4.05 6.25 0.15 0 0.75 -0.85 1.45 -1.85z m357.10 -1.90 c-1 -1.50 -1.95 -2.75 -2.05 -2.75 -0.25 0 0.15 0.70 1.95 3.40 0.80 1.15 1.55 2.10 1.70 2.10 0.10 0 -0.60 -1.25 -1.60 -2.75z m-343.20 -16.10 c0 -0.55 -2.70 1.75 -3.60 3.05 -0.85 1.25 -0.65 1.15 1.25 -0.70 1.30 -1.20 2.35 -2.30 2.35 -2.35z m333.95 3.50 c-1.40 -1.75 -2.95 -3.30 -2.95 -3 0 0.40 3 3.85 3.35 3.85 0.15 0 -0.05 -0.40 -0.40 -0.85z"/>
  <path d="M382.20 659.25 c-1.55 -0.70 -3.70 -2.90 -3.70 -3.80 0 -0.25 0.55 -0.45 1.25 -0.45 0.70 0 1.25 0.30 1.25 0.65 0 0.35 1 1.05 2.25 1.55 1.25 0.55 2.25 1.25 2.25 1.65 0 0.45 0.70 0.65 2.25 0.65 1.60 0 2.25 -0.20 2.25 -0.70 0 -0.45 0.85 -0.80 2.40 -1 4.90 -0.65 9 -1.45 13.85 -2.65 2.75 -0.70 5.70 -1.40 6.50 -1.50 0.85 -0.15 1.60 -0.45 1.75 -0.60 0.15 -0.20 3.30 -1.60 7 -3.05 3.70 -1.50 6.85 -2.90 6.90 -3.10 0.10 -0.25 0.60 -0.40 1.15 -0.40 0.50 0 0.95 -0.20 0.95 -0.50 0 -0.25 0.45 -0.50 1 -0.50 0.55 0 1 -0.20 1 -0.45 0 -0.25 0.80 -0.75 1.75 -1.10 0.95 -0.35 1.75 -0.80 1.75 -1 0 -0.20 0.50 -0.55 1.10 -0.75 0.60 -0.15 1.65 -0.85 2.35 -1.55 0.70 -0.65 1.80 -1.30 2.45 -1.45 0.60 -0.20 1.10 -0.50 1.10 -0.75 0 -0.25 0.55 -0.45 1.25 -0.45 0.80 0 1.25 -0.30 1.25 -0.75 0 -0.50 0.50 -0.75 1.70 -0.75 1.50 0 1.75 -0.15 1.90 -1.35 0.10 -1 0.45 -1.45 1.30 -1.55 0.60 -0.10 1.10 -0.50 1.10 -0.90 0 -0.40 0.30 -0.70 0.70 -0.70 0.40 0 0.80 -0.35 1 -0.75 0.15 -0.40 0.75 -0.75 1.30 -0.75 0.65 0 1 -0.35 1 -0.90 0 -1.15 1.50 -2.60 2.65 -2.60 0.45 0 0.85 -0.20 0.85 -0.50 0 -0.80 3.70 -3.95 4.65 -4 0.50 0 0.85 -0.40 0.85 -0.90 0 -1.40 2.30 -3.10 4.15 -3.10 1.60 0 1.55 0.05 -3 4.40 -8.10 7.65 -11.25 10.30 -16 13.60 -12.20 8.45 -18.50 11.95 -28.90 16.05 -8.45 3.35 -14.20 4.95 -23.30 6.45 -7.05 1.15 -13 1.25 -15.25 0.25z"/>
  <path d="M358.50 651.15 c0 -1 -0.20 -3.20 -0.45 -4.85 -0.30 -1.70 -0.75 -4.85 -1.05 -7.05 -0.30 -2.20 -0.80 -5.25 -1.05 -6.75 -0.65 -3.95 -1.85 -11.25 -2.95 -18.50 -0.95 -5.95 -1.40 -8.75 -2.50 -14.60 -0.25 -1.45 -0.95 -5.25 -1.50 -8.40 -0.55 -3.15 -1.25 -6.95 -1.50 -8.35 -0.30 -1.45 -0.70 -3.85 -0.95 -5.25 -3.10 -17.10 -4.85 -24 -7.10 -27.70 -0.55 -0.85 -0.95 -1.95 -0.95 -2.40 0 -0.45 -0.30 -0.80 -0.70 -0.80 -0.35 0 -1.30 -0.90 -2.05 -2 -0.75 -1.10 -1.65 -2 -2 -2 -0.35 0 -1.25 -0.65 -1.90 -1.50 -0.70 -0.80 -1.50 -1.50 -1.80 -1.50 -0.30 0 -0.55 -0.15 -0.55 -0.40 0 -0.20 -0.65 -0.65 -1.50 -1 -0.80 -0.40 -1.50 -1 -1.50 -1.40 0 -0.40 -0.50 -0.70 -1.25 -0.70 -0.70 0 -1.25 -0.20 -1.25 -0.50 0 -0.25 -0.30 -0.50 -0.70 -0.50 -1.20 0 -2.80 -2.50 -2.80 -4.30 0 -2.15 1 -2.20 2 -0.05 0.75 1.60 2.75 3.25 7.35 6.10 1.30 0.80 3.40 2.40 4.60 3.50 1.25 1.10 2.05 1.70 1.85 1.40 -0.20 -0.35 -0.25 -0.65 -0.15 -0.65 0.15 0 1.50 1.85 3 4.15 4.20 6.30 5.15 9.50 9.05 30.60 3.90 20.95 8.45 48.25 11.35 67.75 1 6.90 0.90 9.50 -0.35 9.50 -0.45 0 -0.70 -0.60 -0.70 -1.85z"/>
  <path d="M377.80 651.80 c-0.45 -1.80 1.45 -14.80 6.40 -44.55 5.50 -32.95 8.60 -48.65 10.65 -54.40 0.65 -1.85 1.05 -3.65 0.85 -4 -0.20 -0.30 -0.20 -0.45 0.05 -0.25 0.50 0.45 4.40 -4.95 4.05 -5.55 -0.35 -0.50 1.90 -2.65 2.35 -2.25 0.15 0.20 1.05 -0.30 2 -1.15 0.90 -0.80 2.70 -2.10 4.05 -2.90 4.55 -2.85 6.55 -4.55 7.30 -6.10 1 -2.15 2 -2.10 2 0.05 0 1.80 -1.60 4.30 -2.80 4.30 -0.40 0 -0.70 0.25 -0.70 0.50 0 0.30 -0.55 0.50 -1.25 0.50 -0.75 0 -1.25 0.30 -1.25 0.70 0 0.40 -0.65 1 -1.50 1.40 -0.80 0.35 -1.50 0.80 -1.50 1 0 0.25 -0.20 0.40 -0.45 0.40 -0.25 0 -2.10 1.60 -4.05 3.50 -1.95 1.95 -3.80 3.50 -4.05 3.50 -0.25 0 -0.45 0.35 -0.45 0.80 0 0.45 -0.45 1.55 -0.95 2.40 -1.55 2.45 -3.40 8.55 -4.75 15.55 -0.70 3.60 -1.50 7.65 -1.80 9 -0.25 1.40 -1.15 6.35 -2 11 -0.80 4.70 -1.85 10.35 -2.30 12.60 -0.40 2.25 -0.95 5.40 -1.20 7 -0.25 1.60 -0.80 5.05 -1.25 7.65 -0.75 4.50 -1.75 10.60 -3.45 21.50 -1.55 9.75 -2.30 15.25 -2.30 17.10 0 2.15 -1.20 2.70 -1.70 0.70z"/>
  <path d="M412.50 532.25 c0.65 -0.70 1.30 -1.15 1.40 -1 0.35 0.35 -1.45 2.25 -2.05 2.25 -0.30 0 0 -0.55 0.65 -1.25z"/>
  <path d="M320.50 526.75 c0 -1.20 0.25 -1.75 0.75 -1.75 0.45 0 0.75 -0.45 0.75 -1.25 0 -0.80 0.30 -1.25 0.75 -1.25 0.40 0 0.75 -0.35 0.75 -0.75 0 -0.40 0.55 -0.85 1.25 -1.05 0.70 -0.15 1.25 -0.50 1.25 -0.75 0 -0.25 0.70 -0.45 1.50 -0.45 0.85 0 1.50 -0.15 1.50 -0.40 0 -0.55 5.95 -1.60 9 -1.60 1.85 0 2.50 0.20 2.50 0.75 0 0.40 -0.65 0.80 -1.60 0.95 -11.45 1.60 -13.85 2.65 -15.90 6.70 -1.50 3 -2.50 3.35 -2.50 0.85z"/>
  <path d="M415.60 526.85 c-1.20 -3.40 -5.30 -6.05 -10.45 -6.85 -6.30 -0.95 -6.65 -1.05 -6.65 -1.75 0 -0.55 0.60 -0.75 2 -0.75 2.65 0 8.50 1.10 8.50 1.60 0 0.25 0.70 0.40 1.50 0.40 0.85 0 1.50 0.25 1.50 0.50 0 0.30 0.30 0.50 0.70 0.50 1.25 0 3.30 2.05 3.30 3.30 0 0.75 0.30 1.20 0.75 1.20 0.50 0 0.75 0.55 0.75 1.75 0 2.25 -1.10 2.30 -1.90 0.10z"/>
  <path d="M271.25 507.75 c-1.65 -0.45 -3 -1.20 -4.10 -2.45 -1.55 -1.65 -1.65 -2.05 -1.65 -5.20 0 -2.20 0.25 -3.75 0.75 -4.45 0.95 -1.40 4.60 -2.60 9.25 -3.15 5.55 -0.60 16.70 -1.95 21 -2.50 5.15 -0.70 6.50 -0.65 6.50 0.20 0 0.90 -0.85 1.10 -11.50 2.30 -14.70 1.70 -19.45 2.45 -21.40 3.45 -1.85 0.95 -3.10 2.75 -3.10 4.40 0 0.75 0.10 0.70 0.65 -0.05 0.65 -0.90 0.75 -0.85 1.75 0.55 0.60 0.85 1.90 2.15 2.95 2.95 1.70 1.30 2.40 1.50 6.90 1.75 4.85 0.30 4.85 0.30 -1.50 0.25 -3.55 -0.05 -5.95 0.05 -5.25 0.25 0.70 0.20 8 0.40 16.25 0.40 8.25 0.05 15.50 0.20 16.15 0.35 0.60 0.20 1.10 0.65 1.10 1 0 1 -31.05 0.95 -34.75 -0.05z"/>
  <path d="M431.50 507.80 c0 -0.35 0.50 -0.80 1.15 -1 0.60 -0.15 8 -0.30 16.45 -0.30 8.45 0 15.45 -0.15 15.55 -0.35 0.15 -0.25 -2.25 -0.40 -5.30 -0.35 l-5.60 0.05 5.05 -0.30 c4.95 -0.30 5.10 -0.35 7.40 -2.25 2.45 -2 3.55 -3.80 2.70 -4.35 -0.35 -0.20 -0.30 -0.40 0.05 -0.50 0.85 -0.30 -0.80 -2.40 -2.40 -3.05 -0.70 -0.30 -3 -0.70 -5.05 -0.95 -2.05 -0.20 -5.10 -0.60 -6.75 -0.90 -1.65 -0.30 -5.25 -0.75 -8 -1 -4.90 -0.50 -15.40 -1.80 -18.60 -2.30 -1 -0.20 -1.65 -0.60 -1.65 -1 0 -0.90 2.40 -1 6.55 -0.30 1.50 0.25 4.95 0.70 7.70 1 2.75 0.30 7.80 0.90 11.25 1.35 3.45 0.40 8.05 0.95 10.25 1.20 5.05 0.55 8.60 1.75 9.60 3.30 0.55 0.90 0.70 2.10 0.55 4.75 -0.20 3.35 -0.30 3.65 -2 5.20 -2.70 2.50 -4.90 2.75 -22.90 2.75 -13.30 0 -16 -0.10 -16 -0.70z m39.05 -9.15 c-0.50 -0.85 -0.50 -0.80 -0.55 0.15 0 1.15 0.65 2.05 0.90 1.25 0.10 -0.30 -0.05 -0.90 -0.35 -1.40z"/>
  <path d="M310.40 507.15 c1.15 -0.10 2.95 -0.10 4 0 1 0.10 0.05 0.20 -2.15 0.20 -2.20 0 -3.05 -0.10 -1.85 -0.20z"/>
  <path d="M349.15 507.15 c1.30 -0.10 3.40 -0.10 4.75 0 1.30 0.10 0.20 0.15 -2.40 0.15 -2.60 0 -3.70 -0.05 -2.35 -0.15z"/>
  <path d="M383.90 507.15 c1.45 -0.10 3.70 -0.10 5 0 1.30 0.10 0.10 0.15 -2.65 0.15 -2.75 0 -3.80 -0.05 -2.35 -0.15z"/>
  <path d="M423.90 507.15 c1.15 -0.10 3.05 -0.10 4.25 0 1.15 0.10 0.20 0.20 -2.15 0.20 -2.35 0 -3.30 -0.10 -2.10 -0.20z"/>
  <path d="M349.90 505.65 c0.85 -0.10 2.35 -0.10 3.25 0 0.85 0.10 0.15 0.20 -1.65 0.20 -1.80 0 -2.50 -0.10 -1.60 -0.20z"/>
  <path d="M384.35 505.65 c0.90 -0.10 2.50 -0.10 3.50 0 1.05 0.10 0.35 0.20 -1.60 0.20 -1.90 0 -2.75 -0.10 -1.90 -0.20z"/>
  <path d="M303.50 490.10 c0 -0.90 0.45 -1.05 3.40 -1.30 1.85 -0.15 4.70 -0.50 6.35 -0.80 1.65 -0.25 5.25 -0.70 8 -1 6.50 -0.75 13.60 -1.90 15.75 -2.50 0.95 -0.30 2.35 -0.50 3.10 -0.50 1.15 0 1.40 -0.20 1.40 -1.20 0 -0.65 0.35 -1.45 0.80 -1.85 1.90 -1.60 2.45 -3.55 2.45 -9.20 -0.05 -4.15 -0.25 -6.10 -1 -8 -2.70 -7.20 -8.05 -13.40 -13.90 -16.20 -1.70 -0.80 -5.70 -2.30 -8.85 -3.30 -6.75 -2.20 -8.50 -3 -8.50 -4 0 -0.40 -0.40 -0.75 -0.90 -0.75 -1.10 0 -3.10 -2 -3.10 -3.10 0 -0.45 -0.40 -0.90 -0.90 -1 -1.20 -0.35 -3.10 -6.25 -3.10 -9.55 0 -2.70 0.90 -6.85 1.50 -6.85 0.20 0 0.50 -0.45 0.65 -1 0.15 -0.60 0.70 -1 1.30 -1 0.70 0 1.05 -0.30 1.05 -1 0 -0.55 0.35 -1 0.75 -1 0.40 0 0.75 -0.20 0.75 -0.40 0 -0.80 3.55 -2.10 6.75 -2.40 2.80 -0.30 3.25 -0.20 3.25 0.45 0 0.55 -0.60 0.90 -1.85 1.10 -7.15 1.20 -11.60 5.10 -12.05 10.55 -0.30 3.45 0.70 6.95 2.35 8.50 0.85 0.80 1.05 1.20 0.55 1.20 -0.40 0 0.25 1 1.50 2.30 2.15 2.15 4.50 3.90 3.80 2.80 -0.30 -0.50 2.80 0.95 3.85 1.80 0.35 0.25 1.95 0.75 3.55 1.10 1.65 0.35 3.30 0.95 3.70 1.35 0.45 0.45 1.25 0.60 2.05 0.45 0.70 -0.15 1 -0.15 0.60 0.05 -0.40 0.15 0.95 1.05 3.25 2.10 4.80 2.25 7.75 5.10 10.85 10.40 3.70 6.25 5.20 14.35 3.85 20.60 -0.80 3.90 -1.90 5.55 -4.80 7.55 -2.65 1.75 -8.20 3.05 -17.10 4 -2.65 0.30 -7.20 0.85 -10.10 1.25 -10.80 1.45 -11 1.45 -11 0.35z"/>
  <path d="M423.25 489.75 c-0.25 -0.10 -1.35 -0.30 -2.35 -0.50 -2.45 -0.40 -2.60 -1.75 -0.20 -1.75 3.10 0 4.80 0.55 4.80 1.55 0 0.90 -0.90 1.15 -2.25 0.70z"/>
  <path d="M412.50 488.50 c-3.40 -0.35 -5.75 -0.75 -11 -1.80 -2.20 -0.45 -3.50 -1.10 -3.50 -1.75 0 -0.65 2.90 -0.45 9.25 0.70 2.50 0.45 6 0.95 7.90 1.10 2.85 0.30 3.35 0.45 3.35 1.30 0 1.05 0.15 1.05 -6 0.45z"/>
  <path d="M394.60 483.25 c-1.05 -0.85 -1.90 -2.35 -2.65 -4.60 -0.95 -2.85 -1.05 -4 -0.80 -8.10 0.35 -6.35 1.70 -10.35 5.25 -15.80 3.35 -5.20 5.80 -7.20 11.85 -9.70 2.20 -0.90 4.25 -1.80 4.50 -2 0.30 -0.20 1.75 -0.65 3.25 -1 1.50 -0.40 3 -0.85 3.25 -1.05 1.35 -1.05 4.35 -2.50 4.70 -2.30 0.20 0.15 1.50 -0.90 2.90 -2.35 3.30 -3.35 4.85 -7.45 4.55 -11.80 -0.25 -3.75 -2.10 -6.55 -5.65 -8.60 -2.55 -1.50 -3.05 -1.65 -6.35 -2.20 -1.30 -0.20 -1.90 -0.55 -1.90 -1.10 0 -0.65 0.45 -0.75 3.30 -0.45 4.05 0.40 8.20 2.35 8.20 3.80 0 0.70 0.35 1 1.05 1 0.60 0 1.15 0.40 1.30 1 0.15 0.55 0.45 1 0.65 1 0.60 0 1.50 4.15 1.50 6.85 0 3.30 -1.85 9.05 -3.05 9.40 -0.55 0.20 -0.95 0.70 -0.95 1.20 0 1.10 -2.05 3.05 -3.15 3.05 -0.45 0 -0.85 0.35 -0.85 0.75 0 1 -1.75 1.80 -8.50 4 -10.80 3.45 -15.35 6.50 -19.45 13 -3.55 5.65 -4.30 8.15 -4.30 15 0 5.65 0.10 6.10 1.25 7.40 1.10 1.20 2.20 4.30 1.75 4.75 -0.05 0.05 -0.80 -0.45 -1.65 -1.15z"/>
  <path d="M365 437.20 c-7.20 -1.40 -12.15 -4.40 -21.25 -12.70 -1.70 -1.55 -4.70 -3.90 -6.75 -5.25 -3.70 -2.40 -10.30 -5.25 -12.25 -5.25 -1.85 0 -3.25 -0.60 -3.25 -1.40 0 -0.60 0.50 -0.70 3 -0.45 3.70 0.40 9.50 2.35 9.50 3.20 0 0.35 0.45 0.65 1.05 0.65 1.45 0 2.95 0.90 2.95 1.75 0 0.45 0.50 0.75 1.30 0.75 0.85 0 1.40 0.30 1.55 1 0.15 0.55 0.70 1 1.20 1 0.60 0 0.95 0.35 0.95 1 0 0.70 0.35 1 1.15 1 1.20 0 4.35 2.85 4.35 3.90 0 0.35 0.45 0.60 1 0.60 0.75 0 1 0.35 1 1.25 0 1.05 0.25 1.25 1.50 1.25 0.85 0 1.50 0.25 1.50 0.50 0 0.30 0.35 0.50 0.75 0.50 0.40 0 0.75 0.25 0.75 0.50 0 0.30 0.35 0.50 0.75 0.50 0.40 0 0.75 0.25 0.75 0.50 0 0.30 0.35 0.50 0.75 0.50 0.40 0 0.75 0.25 0.75 0.50 0 0.30 0.40 0.50 0.90 0.50 0.45 0 2.20 0.45 3.80 1 3.90 1.30 8.70 1.30 12.85 -0.05 3.30 -1.05 7.05 -2.90 7.35 -3.55 0.10 -0.25 0.50 -0.40 0.90 -0.40 0.40 0 0.70 -0.20 0.70 -0.50 0 -0.25 0.70 -0.50 1.50 -0.50 1.25 0 1.50 -0.20 1.50 -1.25 0 -0.75 0.35 -1.40 0.85 -1.60 0.45 -0.15 1.60 -1.20 2.55 -2.25 1.25 -1.35 2.10 -1.90 3.15 -1.90 1.20 0 1.45 -0.20 1.45 -1.25 0 -0.75 0.30 -1.25 0.70 -1.25 0.40 0 0.80 -0.35 1 -0.75 0.15 -0.40 0.80 -0.75 1.50 -0.75 0.75 0 1.25 -0.35 1.45 -1 0.20 -0.75 0.70 -1 2.05 -1 1 0 1.80 0.15 1.80 0.40 0 0.20 -1.50 1.35 -3.40 2.60 -1.85 1.20 -4.70 3.45 -6.35 5 -10.20 9.40 -15.75 12.35 -23.90 12.75 -2.25 0.10 -4.65 0.05 -5.35 -0.05z"/>
  <path d="M404.50 415.80 c0 -0.95 0.50 -1.35 2.95 -2.25 1.65 -0.60 4.45 -1.20 6.25 -1.40 2.80 -0.25 3.30 -0.20 3.30 0.50 0 0.55 -0.60 0.90 -1.85 1.10 -1.05 0.15 -2.35 0.35 -2.90 0.45 -0.55 0.10 -2.50 0.75 -4.35 1.45 l-3.40 1.30 0 -1.15z"/>
  <path d="M232.50 377.50 c0 -0.90 0.50 -0.95 7.90 -1.20 16 -0.50 27.30 -1.40 31.85 -2.50 0.55 -0.10 2.80 -0.50 5 -0.85 6.65 -0.95 18.35 -4.25 20.15 -5.60 0.55 -0.40 0.55 -0.60 0 -0.90 -0.55 -0.35 -0.55 -0.45 0 -0.45 0.35 0 1.70 -0.80 2.95 -1.75 2.40 -1.85 3.45 -1.95 1.90 -0.25 -0.90 1 -0.90 1.05 0.05 0.70 1 -0.35 7.20 -6.50 7.20 -7.15 0 -0.25 0.35 -0.70 0.75 -1.05 1.10 -0.90 1 0.40 -0.10 1.60 -0.45 0.50 -0.70 1 -0.60 1.15 0.15 0.10 1.35 -0.85 2.65 -2.20 1.40 -1.40 2.05 -2.40 1.60 -2.40 -0.40 0 -0.65 0.20 -0.50 0.45 0.15 0.20 -0.15 0.25 -0.60 0.05 -0.80 -0.30 -0.75 -0.35 0.10 -1 0.50 -0.35 0.70 -0.65 0.45 -0.65 -0.25 0 0.40 -0.80 1.45 -1.75 1.95 -1.75 2.65 -2.20 2.05 -1.25 -0.15 0.30 0 0.50 0.35 0.50 0.80 0 2.70 -2.35 4.65 -5.70 1.25 -2.15 1.35 -2.45 0.60 -2.85 -1.15 -0.65 -0.25 -2.65 2.25 -5 1.05 -1 1.90 -2.15 1.90 -2.55 0 -0.40 0.55 -1 1.20 -1.35 0.65 -0.35 1.55 -1.40 2 -2.35 1 -2.10 1 -2.25 0.05 -1.90 -0.45 0.20 -0.75 0 -0.75 -0.45 0 -0.40 0.35 -1 0.75 -1.35 0.60 -0.50 0.75 -0.50 0.75 0 0 0.40 0.10 0.55 0.25 0.40 0.45 -0.40 -0.30 -1.90 -0.80 -1.60 -0.25 0.15 -0.60 -0.10 -0.75 -0.55 -0.20 -0.50 0.15 -1.35 1 -2.20 0.70 -0.75 1.30 -1.50 1.30 -1.70 0 -0.15 0.70 -1.30 1.50 -2.50 0.85 -1.25 1.50 -2.50 1.50 -2.80 0 -0.30 0.35 -0.55 0.80 -0.55 0.60 0 0.75 0.30 0.50 1.40 -0.25 1.15 -0.15 1.05 0.70 -0.55 0.60 -1.05 1 -2.15 0.90 -2.50 -0.05 -0.30 0.15 -1.10 0.50 -1.70 0.35 -0.60 0.80 -1.65 1.10 -2.35 0.35 -1 0.30 -1.20 -0.25 -0.95 -0.80 0.30 -1 -1.15 -0.40 -3.25 0.20 -0.90 0.55 -1.15 1.45 -0.95 0.65 0.10 1.20 0 1.20 -0.20 0 -0.25 -0.20 -0.45 -0.50 -0.45 -0.30 0 -0.30 -0.45 -0.05 -1.10 0.25 -0.65 0.45 -1.30 0.50 -1.55 0.10 -0.80 2.55 -4.05 2.55 -3.35 0 0.45 0.15 0.55 0.50 0.20 0.70 -0.70 2.95 -8.70 2.70 -9.40 -0.15 -0.35 0.20 -1.05 0.80 -1.55 1 -0.90 1.35 -1.80 0.65 -1.70 -1 0.15 -1.15 -0.15 -0.65 -1.05 0.65 -1.25 1.60 -1.35 1.15 -0.10 -0.45 1.25 0.10 0.60 1.10 -1.35 0.50 -1 0.60 -1.50 0.20 -1.30 -0.45 0.30 -0.50 0.10 -0.25 -0.80 0.20 -0.65 0.50 -1.80 0.65 -2.55 0.15 -0.75 0.65 -1.40 1.20 -1.55 1.20 -0.30 1.20 0 -0.10 2.10 -0.55 0.90 -0.90 1.75 -0.75 1.90 0.40 0.40 3.35 -5.85 3.05 -6.40 -0.20 -0.25 -0.15 -0.45 0.10 -0.40 0.95 0.15 1.35 -0.10 0.75 -0.50 -0.55 -0.30 -0.40 -0.70 0.70 -1.70 0.75 -0.70 1.55 -1.20 1.75 -1.10 0.20 0.15 0.30 -0.15 0.25 -0.60 0 -0.45 0.25 -0.90 0.60 -1 0.40 -0.15 0.50 0.05 0.25 0.70 -0.30 0.80 -0.25 0.80 0.50 0.25 0.45 -0.40 0.95 -1.05 1.10 -1.55 0.25 -0.90 3.25 -2.30 3.25 -1.50 0 0.30 1.05 0.35 2.50 0.15 2.30 -0.30 2.50 -0.25 2.50 0.75 0 0.80 -0.30 1.05 -1.35 1.05 -1.85 0.05 -5.15 1.75 -8.05 4.25 -2 1.65 -2.90 3.15 -5.95 9.50 -2 4.10 -4.40 9.95 -5.40 12.95 -1 3 -2.45 6.75 -3.20 8.25 -0.80 1.55 -2.10 4.60 -2.95 6.80 -3.20 8.50 -4.20 11 -4.60 11.50 -0.70 0.85 -4.85 9.30 -6 12.25 -0.60 1.50 -1.90 4 -2.95 5.50 -1.05 1.50 -2.80 4.35 -3.95 6.25 -4.80 8.20 -16.05 18.80 -23.30 22 -12.55 5.55 -39.25 9.75 -61.85 9.75 -5.55 0 -5.95 -0.05 -5.95 -1z"/>
  <path d="M488.75 378.15 c-1.10 -0.05 -5.15 -0.40 -9 -0.65 -16.45 -1.30 -31.05 -4.25 -41.05 -8.35 -3.65 -1.55 -9.85 -5.65 -10.85 -7.20 -0.35 -0.55 -0.85 -0.95 -1.20 -0.95 -0.50 0 -2.05 -1.60 -8.35 -8.75 -0.95 -1.10 -2.25 -2.85 -2.90 -3.90 -0.65 -1.05 -2.35 -3.75 -3.85 -6 -1.50 -2.25 -3.55 -6.10 -4.60 -8.60 -1 -2.45 -2.75 -6.05 -3.80 -8 -2.10 -3.80 -3.65 -7.45 -6.35 -14.75 -0.95 -2.60 -2.30 -5.75 -3 -7 -0.70 -1.25 -2.15 -5 -3.25 -8.25 -2.45 -7.65 -8.25 -19.40 -10.45 -21.45 -2.55 -2.35 -7.15 -4.80 -8.95 -4.80 -1.35 0 -1.65 -0.20 -1.65 -1.05 0 -1 0.20 -1.05 2.40 -0.80 1.30 0.10 2.80 0.40 3.35 0.55 0.65 0.25 0.60 0.10 -0.25 -0.40 l-1.25 -0.75 1.20 -0.05 c0.80 0 1.90 0.75 3.25 2.15 1.10 1.15 1.70 1.70 1.35 1.25 -1.20 -1.60 0.20 -0.95 2.35 1.05 2 1.85 2.80 3.05 1.55 2.25 -0.70 -0.40 -0.75 -0.50 1.95 4.70 1.35 2.60 2.35 4 2.70 3.80 0.30 -0.20 0.40 -0.15 0.20 0.20 -0.15 0.30 -0.05 1.10 0.30 1.85 0.35 0.85 0.70 1.10 0.95 0.70 0.40 -0.70 1.95 -0.25 1.95 0.55 0 0.25 -0.45 0.50 -1 0.50 -1.15 0 -1.25 0.40 -0.25 1.70 0.40 0.50 0.60 1.15 0.45 1.40 -0.15 0.25 -0.10 0.40 0.15 0.35 0.90 -0.15 1.35 0.10 0.80 0.45 -0.45 0.30 -0.30 1.35 0.65 4.30 1.40 4.55 2.15 6.10 2.20 4.65 0 -1.30 0.80 -0.65 2.25 1.85 1.15 1.95 1.30 4.20 0.20 3.55 -0.20 -0.15 -0.15 0.40 0.15 1.30 0.35 0.95 0.65 1.35 0.90 0.95 0.25 -0.40 0.60 -0.35 1.20 0.25 0.90 0.90 1.10 3.25 0.25 3.25 -0.60 0 -0.15 1.85 0.70 2.90 0.25 0.35 0.55 1.25 0.60 2 0.10 1.20 1.85 5.05 3.15 7 0.35 0.55 0.50 0.50 0.75 -0.15 0.20 -0.45 0.15 -0.65 -0.15 -0.50 -0.25 0.15 -0.90 -0.60 -1.50 -1.70 -1.30 -2.60 -1.25 -3.85 0.05 -1.55 0.60 1.10 0.90 1.35 0.80 0.70 -0.20 -0.85 -0.05 -1 0.70 -0.85 0.65 0.20 0.95 0.70 0.95 1.75 0 0.80 0.20 1.35 0.45 1.15 0.25 -0.15 0.65 0.25 0.85 0.85 0.20 0.65 0.75 1.45 1.25 1.80 0.55 0.35 0.95 1.20 0.95 1.90 0 1.25 -0.70 1.60 -1.30 0.65 -0.20 -0.40 -0.45 -0.35 -0.75 0.10 -0.25 0.45 -0.05 1 0.65 1.65 0.65 0.60 0.80 1.05 0.45 1.30 -0.40 0.20 -0.35 0.85 0.20 2.20 0.45 1.05 0.95 1.75 1.10 1.60 0.40 -0.35 1.60 1.25 1.65 2.10 0 0.35 -0.25 0.50 -0.55 0.30 -0.40 -0.25 -0.40 -0.05 0 0.70 0.35 0.70 0.85 0.90 1.55 0.75 0.55 -0.15 1 0 1 0.30 0 0.30 0.55 0.85 1.30 1.15 1.15 0.55 1.25 0.80 1 2.95 -0.20 1.65 -0.05 2.60 0.50 3.25 0.45 0.55 0.65 0.65 0.45 0.35 -0.15 -0.35 -0.05 -0.65 0.30 -0.65 0.30 0 0.45 0.40 0.30 0.95 -0.30 1.15 0.55 2.70 1.25 2.25 0.35 -0.25 0.40 -0.10 0.15 0.25 -0.40 0.70 2.15 3.70 2.80 3.25 0.20 -0.10 0.50 0 0.70 0.30 0.15 0.25 0.75 0.50 1.30 0.50 0.50 0 0.95 0.35 0.95 0.75 0 0.90 0.80 1 1.30 0.20 0.45 -0.75 1.20 0.45 1.20 2 0 0.85 -0.20 1.05 -0.75 0.85 -0.40 -0.15 -1.15 -0.45 -1.60 -0.60 -0.50 -0.20 0.35 0.90 1.85 2.45 1.90 2 2.80 2.65 3.10 2.20 0.30 -0.40 1.30 0.35 3.35 2.55 1.60 1.70 3.05 3.10 3.20 3.10 0.15 0 0.15 -0.45 0 -1 -0.40 -1.40 0.55 -1.25 2.45 0.50 1.50 1.35 2.40 1.75 3.60 1.55 0.25 -0.05 0.80 0.05 1.25 0.25 0.55 0.25 0.20 0.45 -1.20 0.65 l-2 0.30 3.75 1.35 c6.90 2.45 13.80 4 26.50 5.95 3.90 0.60 16.85 1.45 27.65 1.75 7.35 0.25 7.85 0.30 7.85 1.20 0 0.95 -0.35 1 -7.35 0.90 -4.10 -0.05 -8.30 -0.15 -9.40 -0.25z"/>
  <path d="M238.40 375.65 c0.60 -0.10 1.50 -0.10 2 0 0.45 0.15 -0.05 0.25 -1.15 0.20 -1.10 0 -1.50 -0.10 -0.85 -0.20z"/>
  <path d="M497.65 375.65 c0.75 -0.10 1.85 -0.10 2.50 0 0.60 0.10 0 0.20 -1.40 0.20 -1.35 0 -1.90 -0.10 -1.10 -0.20z"/>
  <path d="M184 365.50 c0 -0.65 0.55 -0.65 1.50 0 0.60 0.40 0.55 0.50 -0.35 0.50 -0.65 0 -1.15 -0.20 -1.15 -0.50z"/>
  <path d="M427.35 357.50 c-0.55 -0.80 -0.65 -1.30 -0.30 -1.45 0.80 -0.25 1.55 0.70 1.35 1.75 -0.15 0.85 -0.25 0.80 -1.05 -0.30z"/>
  <path d="M571.50 350.20 c0 -0.75 1.35 -2.50 1.70 -2.15 0.20 0.15 -0.10 0.85 -0.65 1.50 -0.55 0.65 -1 0.95 -1.05 0.65z"/>
  <path d="M165.30 349.20 c-0.50 -1.25 -0.05 -1.35 0.95 -0.20 0.75 0.85 0.80 1 0.15 1 -0.45 0 -0.95 -0.35 -1.10 -0.80z"/>
  <path d="M319.75 345.90 c0.10 -1.15 0.40 -1.60 1.15 -1.75 0.75 -0.10 1 0.05 0.80 0.60 -0.20 0.40 -0.50 0.75 -0.75 0.75 -0.25 0 -0.45 0.30 -0.45 0.70 0 0.40 -0.20 0.85 -0.45 1 -0.25 0.15 -0.40 -0.40 -0.30 -1.30z"/>
  <path d="M417.80 343.70 c0.35 -0.15 0.50 -0.75 0.35 -1.35 -0.25 -1.05 -0.25 -1.05 0.65 -0.20 0.85 0.75 0.85 0.95 0.20 1.35 -0.40 0.25 -0.95 0.45 -1.25 0.45 -0.25 0 -0.25 -0.15 0.05 -0.25z"/>
  <path d="M348 231.80 c-3.40 -0.60 -6.50 -1.95 -6.50 -2.80 0 -0.80 2.50 -0.55 5.70 0.50 1.95 0.65 4.30 1 6.90 1 3.55 0 3.90 0.10 3.90 1 0 0.90 -0.30 1 -3.35 0.95 -1.90 0 -4.85 -0.30 -6.65 -0.65z"/>
  <path d="M378 231.50 c0 -0.95 0.35 -1 4.65 -1 4.35 0 11.40 -1.25 11.75 -2.10 0.10 -0.25 0.85 -0.40 1.65 -0.40 1.10 0 1.45 -0.25 1.45 -1 0 -0.65 0.45 -1.10 1.25 -1.30 0.70 -0.15 1.25 -0.50 1.25 -0.75 0 -0.25 0.40 -0.45 0.95 -0.45 0.50 0 1.05 -0.45 1.20 -1 0.15 -0.60 0.70 -1 1.30 -1 0.60 0 1.05 -0.30 1.05 -0.75 0 -0.40 0.30 -0.75 0.70 -0.75 0.40 0 0.80 -0.35 1 -0.75 0.15 -0.40 0.80 -0.75 1.50 -0.75 0.75 0 1.25 -0.35 1.45 -1 0.15 -0.65 0.70 -1 1.50 -1 0.80 0 1.30 -0.35 1.50 -1 0.20 -0.75 0.70 -1 2.05 -1 1.45 0 1.80 -0.20 1.80 -1 0 -0.75 0.45 -1.10 1.50 -1.30 0.85 -0.20 1.50 -0.50 1.50 -0.75 0 -0.25 0.35 -0.45 0.75 -0.45 0.40 0 0.75 -0.20 0.75 -0.40 0 -0.65 3.40 -2.10 5 -2.10 0.95 0 1.50 -0.25 1.50 -0.70 0 -0.75 4.25 -2.75 6.80 -3.15 0.95 -0.15 1.70 -0.45 1.70 -0.65 0 -0.20 0.40 -0.50 0.90 -0.65 0.45 -0.15 2.90 -0.95 5.35 -1.85 5 -1.80 10.60 -3.35 14.75 -4.10 1.50 -0.25 3.90 -0.70 5.25 -0.95 6.10 -1.15 20.45 -2.95 23.35 -2.95 2.85 0 3.45 1.30 0.80 1.70 -3.70 0.60 -5.70 0.80 -6.90 0.80 -3.55 -0.05 -20.85 2.90 -27.95 4.80 -16.30 4.30 -36 13.85 -47.30 22.95 -7.15 5.75 -12.75 7.75 -21.85 7.75 -3.55 0 -3.90 -0.10 -3.90 -1z"/>
  <path d="M338 227.95 c0 -0.50 -7.20 -5.95 -12 -9.05 -2.35 -1.55 -6.60 -4.05 -9.50 -5.55 -2.85 -1.55 -5.30 -3.05 -5.40 -3.30 -0.30 -0.85 2.65 -0.65 4.65 0.30 0.95 0.45 1.75 1 1.75 1.25 0 0.20 0.35 0.40 0.75 0.40 0.40 0 0.75 0.20 0.75 0.45 0 0.25 0.70 0.55 1.50 0.75 1.05 0.20 1.50 0.55 1.50 1.30 0 0.80 0.35 1 1.75 1 1.40 0 1.75 0.20 1.75 1 0 0.80 0.35 1 1.50 1 1.15 0 1.50 0.20 1.50 1 0 0.80 0.35 1 1.50 1 1 0 1.50 0.25 1.50 0.75 0 0.40 0.45 0.75 1 0.75 0.55 0 1 0.35 1 0.75 0 0.40 0.45 0.75 1 0.75 0.65 0 1 0.35 1 1 0 0.75 0.35 1 1.25 1 0.70 0 1.25 0.20 1.25 0.45 0 0.25 0.45 0.55 1 0.70 0.65 0.15 1 0.70 1 1.45 0 0.85 -0.30 1.20 -1 1.20 -0.55 0 -1 -0.15 -1 -0.35z"/>
  <path d="M307.50 208.95 c-1.25 -0.55 -5.45 -2.10 -9.30 -3.40 -3.90 -1.35 -7.30 -2.55 -7.50 -2.70 -0.80 -0.45 -6.80 -1.85 -13.45 -3.15 -8.70 -1.70 -8.75 -1.70 -8.75 -2.50 0 -0.90 1.65 -0.90 6.75 0.05 2.20 0.45 5.15 0.95 6.50 1.20 4.35 0.80 10.75 2.60 15.45 4.35 2.50 0.95 4.80 1.70 5.15 1.70 0.30 0 0.65 0.15 0.75 0.40 0.10 0.20 1.40 0.75 2.90 1.25 3.60 1.10 4.10 1.50 3.90 2.75 l-0.15 1.05 -2.25 -1z"/>
  <path d="M545.60 199.45 c-2.95 -0.55 -12.80 -1.85 -19.10 -2.50 -7.80 -0.75 -8.50 -0.90 -8.50 -1.70 0 -1.20 3.30 -1 20.50 1.25 2.05 0.25 5.20 0.70 7 1 1.80 0.25 3.40 0.50 3.65 0.50 0.20 0 0.35 0.45 0.35 1 0 1.10 -0.45 1.15 -3.90 0.45z"/>
  <path d="M265.40 197.75 c-0.15 -0.15 -1.80 -0.35 -3.70 -0.50 -1.90 -0.15 -4.25 -0.35 -5.20 -0.50 -0.95 -0.15 -2.50 -0.40 -3.35 -0.55 -1 -0.15 -1.65 -0.55 -1.65 -0.95 0 -0.95 2.05 -0.95 9.75 0 3.30 0.40 6.15 0.75 6.40 0.75 0.20 0 0.35 0.45 0.35 1 0 0.70 -0.35 1 -1.15 1 -0.65 0 -1.30 -0.10 -1.45 -0.25z"/>
  <path d="M223.50 195 c0 -0.90 0.35 -1 3.25 -1 2.45 0 3.25 0.15 3.25 0.70 0 0.85 -1.55 1.30 -4.35 1.30 -1.80 0 -2.15 -0.15 -2.15 -1z"/>
  <path d="M244.40 195.65 c-0.50 -0.10 -0.90 -0.55 -0.90 -0.95 0 -0.50 0.70 -0.70 2.75 -0.70 2.40 0 2.75 0.10 2.75 1 0 0.85 -0.30 1 -1.85 0.95 -1.05 -0.05 -2.30 -0.15 -2.75 -0.30z"/>
  <path d="M489 195 c0 -0.90 0.35 -1 3 -1 2.20 0 3 0.20 3 0.70 0 0.80 -1.50 1.30 -4.10 1.30 -1.55 0 -1.90 -0.20 -1.90 -1z"/>
  <path d="M509.40 195.65 c-0.50 -0.10 -0.90 -0.55 -0.90 -0.95 0 -0.50 0.70 -0.70 2.75 -0.70 2.40 0 2.75 0.10 2.75 1 0 0.85 -0.30 1 -1.85 0.95 -1.05 -0.05 -2.30 -0.15 -2.75 -0.30z"/>
  <path d="M231.50 194.50 c0 -0.90 0.35 -1 3.50 -1 3.15 0 3.50 0.10 3.50 1 0 0.90 -0.35 1 -3.50 1 -3.15 0 -3.50 -0.10 -3.50 -1z"/>
  <path d="M498 194.50 c0 -0.90 0.35 -1 3.75 -1 3.40 0 3.75 0.10 3.75 1 0 0.90 -0.35 1 -3.75 1 -3.40 0 -3.75 -0.10 -3.75 -1z"/>
 </g>
 <g fill="#ca8500">
  <path d="M344.75 659.50 c-1.10 -0.20 -3.70 -0.70 -5.75 -1 -9 -1.50 -13.65 -2.80 -22.95 -6.60 -8.30 -3.35 -14.85 -6.85 -21.15 -11.25 -1.30 -0.90 -2.55 -1.65 -2.70 -1.65 -0.55 0 -11.20 -8.10 -11.20 -8.50 0 -0.25 -1.40 -1.55 -3.10 -2.90 -4 -3.20 -14.60 -13.60 -19.40 -19.10 -2.05 -2.35 -3.90 -4.35 -4.05 -4.50 -1.95 -1.70 -14.40 -18.25 -18.75 -24.90 -11.30 -17.10 -16.25 -25.75 -25.10 -43.60 -7.40 -14.85 -9.20 -18.70 -12.35 -26.50 -3.05 -7.60 -10 -25.70 -11.75 -30.75 -1.55 -4.50 -7.25 -22.30 -7.70 -24.25 -0.20 -0.70 -1 -3.70 -1.80 -6.75 -2.55 -9.65 -3.85 -14.85 -5 -20 -0.60 -2.75 -1.50 -6.90 -2 -9.25 -2.10 -9.50 -3 -14.05 -4 -20.50 -0.60 -3.70 -1.25 -7.85 -1.50 -9.25 -1.50 -8.45 -3.70 -32.95 -3.40 -38.45 l0.15 -3.40 2.20 3.30 c4.10 6.20 13.10 13.45 22.30 17.85 11.60 5.60 22.75 7.90 43.80 9 25 1.30 55.30 -2.85 69.70 -9.55 2.70 -1.25 5.95 -3.50 10.65 -7.30 l1.60 -1.35 0 1.50 c0 1.30 -1.70 3.65 -2.65 3.65 -0.15 0 -1.15 0.80 -2.20 1.75 -1.05 0.95 -3.10 2.35 -4.50 3.10 -1.45 0.80 -2.65 1.65 -2.65 2 0 0.55 -6.50 5.15 -7.25 5.15 -0.15 0 -1.70 0.65 -3.40 1.45 -7.95 3.70 -17.55 7.55 -21.85 8.80 -1.25 0.35 -3.50 1 -5 1.45 -5.70 1.65 -24.30 5.60 -31.75 6.75 -5.70 0.85 -10.25 1.50 -14.50 2.10 -2.25 0.30 -8.15 0.45 -13.25 0.35 -8.10 -0.15 -9.65 -0.35 -12.50 -1.35 -1.80 -0.60 -3.65 -1.50 -4.15 -1.90 -0.45 -0.45 -0.95 -0.70 -1.05 -0.60 -0.40 0.45 11.90 38 15.45 47.20 1.15 3.05 2.85 7.55 3.70 10.05 0.85 2.45 3 8.30 4.85 13 1.80 4.65 3.80 9.90 4.45 11.70 1.50 4.30 3.80 10 5.65 14 0.80 1.80 1.65 3.80 1.85 4.50 0.20 0.70 1.50 3.95 2.85 7.25 1.40 3.30 3.05 7.35 3.75 9 0.70 1.65 1.45 3.20 1.70 3.50 0.25 0.25 0.45 0.75 0.45 1.10 0 0.65 3.35 8.40 5.75 13.40 0.65 1.40 2.30 5.10 3.70 8.25 2.75 6.45 6.55 14.60 11.30 24.25 1.75 3.60 3.75 7.75 4.45 9.25 0.70 1.50 1.90 4 2.75 5.50 1.75 3.20 10.55 21.30 10.55 21.70 0 0.15 1.15 2.60 2.50 5.45 2.35 4.85 4.50 9.90 8.05 18.80 0.80 2 1.80 4.15 2.20 4.70 0.40 0.60 0.75 1.70 0.75 2.45 0 0.90 0.25 1.40 0.75 1.40 0.40 0 1 0.45 1.35 1 0.35 0.55 0.90 1 1.25 1 0.90 0 3.15 2.05 3.15 2.85 0 0.35 0.45 0.65 1 0.65 0.60 0 1.60 0.55 2.30 1.25 0.70 0.70 1.45 1.25 1.70 1.25 0.30 0 0.50 0.35 0.50 0.75 0 0.45 0.45 0.75 1.25 0.75 0.90 0 1.25 0.25 1.25 1 0 0.75 0.35 1 1.45 1 0.80 0 1.80 0.30 2.15 0.70 0.40 0.35 1.20 0.85 1.80 1 0.60 0.20 1.10 0.55 1.10 0.80 0 0.20 0.55 0.55 1.25 0.70 0.70 0.20 1.25 0.55 1.25 0.80 0 0.30 0.35 0.50 0.75 0.50 0.40 0 0.75 0.25 0.75 0.50 0 0.30 0.45 0.50 1 0.50 0.55 0 1 0.25 1 0.50 0 0.30 0.30 0.50 0.70 0.50 1.05 0 10.50 4.05 10.70 4.55 0.10 0.25 0.60 0.45 1.05 0.45 0.50 0 2.45 0.55 4.35 1.20 4.85 1.65 11.45 3.15 18.35 4.15 5 0.70 5.85 0.95 5.85 1.75 0 1 -1.20 1.10 -4.75 0.40z"/>
  <path d="M351.50 659.10 c0 -0.65 0.60 -1.10 2.05 -1.55 2.35 -0.70 3.80 -2 4.25 -3.80 0.40 -1.60 2.20 -1.75 2.20 -0.20 0 1.85 -1.90 4.30 -4.25 5.40 -2.80 1.30 -4.25 1.35 -4.25 0.15z"/>
  <path d="M382.15 658.90 c-2.25 -1.05 -4.15 -3.55 -4.15 -5.35 0 -1.55 1.80 -1.40 2.20 0.20 0.45 1.80 1.90 3.10 4.25 3.80 1.45 0.45 2.05 0.90 2.05 1.55 0 1.20 -1.65 1.15 -4.35 -0.20z"/>
  <path d="M388.50 659.10 c0 -0.80 0.85 -1.05 5.90 -1.75 6.85 -1 13.45 -2.50 18.30 -4.15 1.90 -0.65 3.90 -1.20 4.40 -1.20 0.50 0 0.90 -0.20 0.90 -0.45 0 -0.45 9.80 -4.55 10.90 -4.55 0.30 0 0.60 -0.20 0.60 -0.50 0 -0.25 0.45 -0.50 1 -0.50 0.55 0 1 -0.20 1 -0.50 0 -0.25 0.35 -0.50 0.75 -0.50 0.40 0 0.75 -0.20 0.75 -0.40 0 -0.20 1.30 -1.05 2.90 -1.85 1.55 -0.85 2.95 -1.65 3 -1.85 0.10 -0.25 0.85 -0.40 1.65 -0.40 1.10 0 1.45 -0.25 1.45 -1 0 -0.55 0.35 -1 0.75 -1 0.40 0 0.75 -0.20 0.75 -0.50 0 -0.25 0.55 -0.60 1.20 -0.80 0.70 -0.15 1.35 -0.60 1.50 -1 0.15 -0.40 0.60 -0.70 1.05 -0.70 0.40 0 0.75 -0.20 0.75 -0.50 0 -0.25 0.45 -0.50 1 -0.50 0.55 0 1 -0.30 1 -0.65 0 -0.80 2.25 -2.85 3.15 -2.85 0.35 0 0.90 -0.45 1.25 -1 0.35 -0.55 0.95 -1 1.35 -1 0.50 0 0.75 -0.55 0.75 -1.70 0 -0.95 0.25 -1.90 0.55 -2.10 0.30 -0.15 0.90 -1.15 1.30 -2.15 0.40 -1 1.50 -3.70 2.50 -6.05 0.95 -2.35 2.10 -5.15 2.55 -6.25 0.40 -1.10 2.10 -4.75 3.70 -8.15 1.60 -3.40 2.90 -6.25 2.90 -6.40 0 -0.35 9.35 -19.50 10.80 -22.20 0.70 -1.25 1.95 -3.70 2.75 -5.50 0.85 -1.80 3.05 -6.40 4.95 -10.25 4.90 -9.95 11.65 -24.65 15.50 -33.75 0.75 -1.80 2.05 -4.75 2.95 -6.60 0.85 -1.85 1.55 -3.65 1.55 -4.05 0 -0.35 0.20 -0.85 0.45 -1.10 0.35 -0.45 1.40 -2.85 6.80 -15.75 0.65 -1.50 1.30 -3.30 1.50 -4 0.20 -0.70 1.10 -2.80 2 -4.75 0.85 -1.90 2.65 -6.30 3.95 -9.75 1.30 -3.45 2.80 -7.25 3.30 -8.50 1 -2.40 6.05 -15.80 9.75 -26 5.25 -14.25 17.30 -51 16.95 -51.45 -0.10 -0.10 -0.60 0.10 -1.05 0.50 -1.25 1.05 -3.45 1.95 -6.65 2.75 -3.80 0.90 -17.85 0.90 -24.75 -0.05 -3 -0.45 -7.05 -1 -9 -1.25 -6.20 -0.80 -11.20 -1.70 -21.75 -4 -0.95 -0.20 -3.55 -0.75 -5.75 -1.20 -10.35 -2.20 -25.10 -7.45 -37.25 -13.30 -4.25 -2.05 -8.50 -4.90 -8.50 -5.65 0 -0.35 -1.20 -1.20 -2.65 -2 -1.40 -0.75 -3.45 -2.15 -4.50 -3.10 -1.05 -0.95 -2.10 -1.75 -2.30 -1.75 -1 0 -2.60 -2.50 -2.45 -3.75 l0.15 -1.35 2.25 1.95 c7.20 6.25 13.10 8.90 26.40 11.90 15.80 3.55 36.35 5.20 53.35 4.30 15.20 -0.85 23.35 -2.05 33.05 -4.80 12.55 -3.65 27.70 -13.85 33 -22.35 l1.95 -3.10 0.15 3.70 c0.25 4.85 -1 20.20 -2.45 31 -2.10 15.70 -3.95 26.05 -8 44 -0.55 2.60 -1.25 5.65 -1.45 6.75 -0.25 1.10 -0.90 3.80 -1.50 6 -1.75 6.50 -3.95 14.90 -4.30 16.25 -0.45 1.95 -6.15 19.75 -7.70 24.25 -3.25 9.35 -12.55 33.10 -15.65 40 -3.15 7 -14.35 29.25 -17.40 34.55 -13.65 23.90 -23.50 38.05 -37.65 54.20 -6.55 7.45 -16.15 17.10 -20.40 20.45 -1.90 1.45 -3.40 2.85 -3.40 3.05 0 0.55 -10.20 7.95 -15.85 11.55 -6.30 4 -12 6.90 -19.20 9.85 -9.25 3.75 -14.55 5.30 -22.95 6.60 -2.05 0.35 -4.85 0.80 -6.15 1.05 -3.55 0.65 -4.35 0.60 -4.35 -0.45z"/>
  <path d="M357.75 646.40 c-0.15 -1.75 -1 -7.30 -1.80 -12.40 -1.85 -11.70 -2.30 -14.70 -2.95 -18.85 -0.80 -5.25 -1.35 -8.45 -2.45 -14.40 -0.60 -3 -1.50 -8.10 -2.05 -11.25 -1.45 -8.35 -1.85 -10.65 -3 -16.50 -0.55 -2.90 -1.25 -6.60 -1.55 -8.25 -0.80 -4.40 -3.40 -12.75 -4.60 -14.75 -0.55 -0.95 -2.10 -3.05 -3.45 -4.60 -1.30 -1.55 -2.40 -3.05 -2.40 -3.35 0 -0.30 -0.45 -0.55 -0.95 -0.55 -0.55 0 -1.15 -0.25 -1.35 -0.55 -0.15 -0.30 -2.50 -2 -5.20 -3.70 -5.05 -3.30 -5.50 -3.80 -5.50 -6.30 0 -1.90 1.10 -1.90 1.85 0 0.35 1.05 1.95 2.40 5.45 4.65 5.55 3.60 10.80 8.50 12.75 11.90 2.70 4.65 4.25 10.60 7.50 28.40 0.25 1.40 0.65 3.80 0.95 5.25 0.25 1.40 0.95 5.20 1.50 8.35 0.55 3.15 1.25 6.95 1.50 8.40 1.10 5.85 1.55 8.65 2.50 14.60 1.10 7.25 2.30 14.55 2.95 18.50 0.25 1.50 0.75 4.55 1.05 6.75 0.30 2.20 0.75 5.35 1.05 7.05 0.65 4.25 0.60 4.70 -0.50 4.70 -0.80 0 -1 -0.50 -1.30 -3.10z"/>
  <path d="M378 648.60 c0 -0.95 1 -8.10 2.30 -16.10 1.70 -10.90 2.70 -17 3.45 -21.50 0.45 -2.60 1 -6.05 1.25 -7.65 0.25 -1.60 0.80 -4.75 1.20 -7 0.45 -2.25 1.50 -7.90 2.30 -12.60 0.85 -4.65 1.75 -9.60 2 -11 0.30 -1.35 1.10 -5.40 1.80 -9 1.45 -7.45 3.15 -12.90 5.10 -16.20 2 -3.45 7.25 -8.35 12.80 -11.95 3.50 -2.25 5.10 -3.60 5.45 -4.65 0.75 -2 1.85 -1.85 1.85 0.20 0 2.20 -1 3.45 -4.10 5.25 -1.45 0.80 -3.70 2.30 -5.05 3.30 -1.30 1 -2.70 1.80 -3.10 1.80 -0.40 0 -0.75 0.25 -0.75 0.55 0 0.30 -1.10 1.80 -2.40 3.35 -1.35 1.55 -2.90 3.65 -3.45 4.60 -1.35 2.25 -3.85 10.30 -4.60 14.75 -0.35 1.95 -0.80 4.40 -1.05 5.50 -0.25 1.10 -0.70 3.45 -1 5.25 -0.30 1.80 -0.75 4.25 -1 5.50 -0.45 2.35 -1.30 7.05 -2.05 11.25 -0.20 1.40 -0.90 5.10 -1.45 8.25 -1.15 6.40 -1.70 9.60 -2.50 14.75 -0.30 1.95 -0.65 4.20 -0.80 5 -1.60 9.25 -4.15 26.65 -4.20 28.40 0 1.20 -2 1.15 -2 -0.05z"/>
  <path d="M320.50 526.40 c0.05 -2.05 1 -3.40 2.45 -3.40 0.80 0 1.05 -0.30 1.05 -1.25 0 -0.95 0.35 -1.30 1.40 -1.55 0.75 -0.20 1.50 -0.55 1.65 -0.80 0.35 -0.55 6.55 -1.90 8.55 -1.90 2.50 0 1.60 1.35 -1.20 2 -5.40 1.15 -6.70 1.60 -8.60 2.90 -1.05 0.75 -2.40 2.30 -3 3.45 -1.25 2.55 -2.30 2.80 -2.30 0.55z"/>
  <path d="M415.20 525.85 c-0.60 -1.15 -1.95 -2.70 -3 -3.45 -1.90 -1.30 -3.20 -1.75 -8.55 -2.90 -2.85 -0.65 -3.75 -2 -1.30 -2 2.55 0 7.15 1.20 7.15 1.85 0 0.40 0.65 0.65 1.70 0.65 0.95 0 2.05 0.35 2.50 0.75 0.40 0.40 0.95 0.75 1.25 0.75 0.30 0 0.55 0.25 0.55 0.50 0 0.30 0.45 1 1 1.60 1.10 1.20 1.40 4.40 0.40 4.40 -0.35 0 -1.15 -1 -1.70 -2.15z"/>
  <path d="M338 508 c0 -0.95 0.35 -1 5.75 -1 5.40 0 5.75 0.05 5.75 1 0 0.95 -0.35 1 -5.75 1 -5.40 0 -5.75 -0.05 -5.75 -1z"/>
  <path d="M388 508 c0 -0.95 0.35 -1 5.50 -1 5.15 0 5.50 0.05 5.50 1 0 0.95 -0.35 1 -5.50 1 -5.15 0 -5.50 -0.05 -5.50 -1z"/>
  <path d="M269.85 507.70 c-2.75 -0.85 -4.35 -2.90 -4.35 -5.55 0 -1.95 1.25 -2.25 1.70 -0.45 0.50 2 3.45 4.15 6.50 4.80 1.85 0.35 2.80 0.80 2.80 1.30 0 0.95 -3.40 0.90 -6.65 -0.10z"/>
  <path d="M461.50 507.80 c0 -0.50 1 -0.95 2.80 -1.30 3.75 -0.80 6.15 -2.95 6.55 -5.85 0.45 -3.25 -0.60 -4.45 -5.10 -5.75 -2.40 -0.70 -3.75 -1.35 -3.75 -1.80 0 -1 4.70 -0.50 7.70 0.80 2.60 1.15 3 2.10 3.05 6.85 0 4.05 -1.30 5.95 -4.85 7 -3.35 1 -6.40 1 -6.40 0.05z"/>
  <path d="M265.60 497.40 c0.15 -2 0.30 -2.25 2.50 -3.30 2.85 -1.45 7.90 -2.10 7.90 -1.05 0 0.45 -1.50 1.20 -3.85 1.95 -3.35 1.10 -4 1.45 -4.65 2.85 -1.10 2.40 -2.10 2.15 -1.90 -0.45z"/>
  <path d="M276.50 493.10 c0 -0.90 0.40 -1.05 3.40 -1.35 1.85 -0.15 4.55 -0.55 6.05 -0.80 4.05 -0.70 6.55 -0.60 6.55 0.25 0 0.80 -0.95 1.05 -7 1.80 -2.35 0.30 -5.30 0.65 -6.60 0.85 -2.20 0.25 -2.40 0.20 -2.40 -0.75z"/>
  <path d="M457.95 493.80 c-0.10 -0.10 -2.35 -0.45 -4.95 -0.75 -6.50 -0.75 -7.50 -1 -7.50 -1.85 0 -0.85 2.50 -0.95 6.55 -0.25 1.50 0.25 4.20 0.65 6.10 0.80 2.85 0.30 3.35 0.45 3.35 1.30 0 0.75 -0.35 0.95 -1.65 0.95 -0.95 0 -1.80 -0.10 -1.90 -0.20z"/>
  <path d="M294 491.10 c0 -0.90 0.40 -1.05 2.90 -1.35 1.55 -0.15 4.20 -0.50 5.90 -0.75 4.40 -0.70 6.70 -0.65 6.70 0.20 0 0.85 -1.05 1.10 -6.50 1.75 -2.35 0.30 -5.30 0.65 -6.60 0.85 -2.20 0.30 -2.40 0.25 -2.40 -0.70z"/>
  <path d="M440.95 491.80 c-0.10 -0.10 -2.45 -0.45 -5.15 -0.75 -6.20 -0.70 -7.30 -1 -7.30 -1.85 0 -0.90 1.30 -0.90 8.25 0.05 3.05 0.40 5.90 0.75 6.40 0.75 0.50 0 0.85 0.40 0.85 1 0 0.75 -0.35 1 -1.40 1 -0.80 0 -1.55 -0.10 -1.65 -0.20z"/>
  <path d="M311.50 489.05 c0 -0.95 1.70 -1.55 4.55 -1.55 2.30 0 1.75 1.30 -0.75 1.95 -3.10 0.75 -3.80 0.70 -3.80 -0.40z"/>
  <path d="M422.40 489.40 c-2.25 -0.60 -2.55 -1.90 -0.45 -1.90 2.85 0 4.55 0.60 4.55 1.55 0 1.05 -1.10 1.15 -4.10 0.35z"/>
  <path d="M318 488.15 c0 -0.80 0.45 -1.05 2.30 -1.35 3.70 -0.50 5.20 -0.40 5.20 0.40 0 0.75 -0.95 1.10 -4.85 1.60 -2.45 0.30 -2.65 0.25 -2.65 -0.65z"/>
  <path d="M416.75 488.75 c-0.25 -0.10 -1.35 -0.30 -2.35 -0.50 -1.20 -0.20 -1.90 -0.55 -1.90 -1 0 -0.85 1.45 -0.95 5.20 -0.45 1.80 0.25 2.30 0.55 2.30 1.25 0 0.70 -0.35 0.95 -1.35 0.90 -0.80 0 -1.60 -0.10 -1.90 -0.20z"/>
  <path d="M327 487.05 c0 -0.80 0.45 -1.05 2.40 -1.30 3.90 -0.50 10.15 -2.20 10.95 -3 0.40 -0.40 1.05 -0.75 1.45 -0.75 0.40 0 0.70 -0.35 0.70 -0.75 0 -0.45 0.35 -1.50 0.80 -2.30 0.70 -1.40 0.70 -1.75 -0.10 -4.10 -2.30 -7.15 -8.30 -15.05 -16.40 -21.75 -4.05 -3.35 -7.85 -6.60 -10.30 -8.80 -0.95 -0.85 -2.60 -2.20 -3.60 -2.95 -1.45 -1.05 -1.90 -1.75 -1.90 -2.90 0 -1.25 -0.20 -1.45 -1.40 -1.45 -1.60 0 -2.60 -0.80 -2.60 -2.05 0 -0.50 -0.25 -0.95 -0.50 -1.05 -0.80 -0.25 -1.95 -3.85 -2 -6 0 -3.10 1.20 -2.25 2.40 1.65 2.10 6.75 5.95 10.05 15.05 13 3.45 1.10 7.70 2.70 9.40 3.50 5.85 2.80 11.15 8.95 13.95 16.20 1.35 3.50 1.40 15.75 0.10 18 -2.05 3.50 -4.70 5.35 -8.90 6.20 -9.60 1.90 -9.50 1.90 -9.50 0.60z"/>
  <path d="M406.50 487.45 c-6.45 -1.30 -7.90 -1.70 -9.70 -2.75 -2.75 -1.55 -4.65 -4.60 -5.10 -8.05 -0.55 -4.35 0.10 -12 1.30 -15.05 1.55 -4.05 4.75 -8.80 7.80 -11.55 3.30 -3.05 6.90 -4.80 15.25 -7.50 9.10 -2.95 12.95 -6.25 15.05 -13 1.20 -3.90 2.40 -4.75 2.40 -1.65 -0.05 2.15 -1.20 5.75 -2 6 -0.25 0.10 -0.50 0.55 -0.50 1.05 0 1.25 -1 2.05 -2.60 2.05 -1.20 0 -1.40 0.20 -1.40 1.45 0 1.15 -0.45 1.85 -1.85 2.90 -1.05 0.75 -2.35 1.85 -2.95 2.40 -1.25 1.25 -6.15 5.35 -9.15 7.80 -5.65 4.45 -13.80 13.50 -15.90 17.70 -0.70 1.35 -1.70 3.70 -2.25 5.25 -0.80 2.40 -0.85 3.05 -0.30 4.90 0.35 1.15 0.85 2.10 1.15 2.10 0.30 0 1.05 0.45 1.65 1 1.05 1 6.90 2.70 11.25 3.25 1.90 0.25 2.35 0.50 2.35 1.30 0 1.05 -0.80 1.15 -4.50 0.40z"/>
  <path d="M367.40 437.15 c-0.50 -0.10 -0.90 -0.55 -0.90 -0.95 0 -0.50 0.65 -0.70 2.15 -0.70 3.70 -0.05 12.75 -2.85 13.25 -4.10 0.10 -0.20 0.50 -0.40 0.90 -0.40 0.40 0 0.70 -0.20 0.70 -0.50 0 -0.25 0.25 -0.50 0.55 -0.50 0.30 0 1 -0.55 1.55 -1.25 0.55 -0.70 1.40 -1.25 1.95 -1.25 0.50 0 0.95 -0.30 0.95 -0.65 0 -1.10 1.70 -2.35 3.15 -2.35 1.05 0 1.30 -0.25 1.45 -1.35 0.10 -1.10 0.45 -1.45 1.55 -1.55 0.95 -0.10 1.35 -0.45 1.35 -1.15 0 -0.60 0.35 -0.95 1 -0.95 0.55 0 1 -0.35 1 -0.75 0 -0.45 0.60 -0.90 1.50 -1.05 0.85 -0.20 1.50 -0.60 1.50 -0.95 0 -0.90 6.65 -3.70 10.75 -4.60 3.85 -0.80 10.35 -0.65 10.65 0.30 0.10 0.30 0.85 0.55 1.65 0.55 1.40 0 3.35 0.70 3.95 1.45 0.15 0.15 0.70 0.55 1.25 0.85 0.55 0.30 1.20 1 1.50 1.60 0.25 0.60 0.65 1.10 0.85 1.10 0.25 0 0.40 0.45 0.40 0.95 0 0.55 0.25 1.05 0.55 1.15 0.30 0.10 0.70 1.35 0.85 2.80 0.20 2.10 0.10 2.60 -0.55 2.60 -0.50 0 -0.95 -0.85 -1.35 -2.45 -0.75 -3.15 -3.30 -6.20 -6.70 -7.90 -2.25 -1.20 -3.15 -1.35 -7.55 -1.35 -4 -0.05 -5.55 0.20 -7.90 1.10 -6.35 2.45 -9.95 4.80 -17.45 11.45 -6.45 5.65 -10.35 8.20 -14.70 9.50 -3.50 1.10 -8.25 1.70 -9.80 1.30z"/>
  <path d="M360.30 435.75 c-4.05 -1.40 -8.75 -4.45 -13.30 -8.55 -4.05 -3.70 -7.65 -6.60 -10.25 -8.25 -6.45 -4.15 -9.70 -5.20 -16 -5.15 -4.60 0 -5.20 0.10 -7.70 1.45 -3.45 1.90 -5.80 4.70 -6.55 7.80 -0.35 1.50 -0.85 2.45 -1.30 2.45 -1 0 -0.95 -4.20 0.05 -5.20 0.40 -0.40 0.75 -1.10 0.75 -1.50 0 -0.45 0.20 -0.80 0.45 -0.80 0.25 0 0.55 -0.45 0.70 -1 0.35 -1.35 4.70 -4 6.65 -4 0.90 0 1.70 -0.30 1.85 -0.60 0.35 -1.15 10 -0.75 13.85 0.55 4.35 1.50 7.50 3.10 7.50 3.85 0 0.30 0.70 0.70 1.50 0.90 0.90 0.15 1.50 0.60 1.50 1.05 0 0.45 0.45 0.75 1.05 0.75 0.60 0 1.15 0.40 1.30 0.95 0.15 0.55 0.75 1.05 1.35 1.15 0.75 0.10 1.10 0.55 1.20 1.55 0.15 1.10 0.40 1.35 1.60 1.35 0.95 0 1.80 0.50 2.65 1.50 0.70 0.85 1.50 1.50 1.75 1.50 0.70 0 2.10 1.75 2.10 2.65 0 0.60 0.45 0.85 1.45 0.85 0.80 0 1.55 0.20 1.65 0.40 0.20 0.55 6.20 2.95 8.30 3.35 1.15 0.25 1.60 0.60 1.60 1.30 0 1.25 -1.35 1.20 -5.70 -0.30z"/>
  <path d="M314.45 355.15 c0.55 -0.80 2.05 -2.50 3.30 -3.90 1.30 -1.35 3.25 -4.05 4.35 -6 1.15 -1.90 2.90 -4.75 3.95 -6.25 1.05 -1.50 2.30 -3.90 2.90 -5.30 1.65 -4.25 3.15 -7.20 3.60 -7.20 0.25 0 0.45 0.80 0.45 1.75 0 1.20 -0.25 1.75 -0.75 1.75 -0.50 0 -0.75 0.55 -0.75 1.75 0 0.95 -0.20 1.75 -0.50 1.75 -0.25 0 -0.50 0.55 -0.50 1.25 0 0.80 -0.30 1.25 -0.75 1.25 -0.50 0 -0.75 0.50 -0.75 1.45 0 0.80 -0.30 1.80 -0.65 2.15 -0.35 0.35 -0.80 1.05 -1 1.55 -0.15 0.45 -0.55 0.85 -0.85 0.85 -0.25 0 -0.50 0.35 -0.50 0.75 0 0.40 -0.35 0.75 -0.75 0.75 -0.45 0 -0.75 0.45 -0.75 1.25 0 0.90 -0.25 1.25 -1 1.25 -0.80 0 -1 0.35 -1 1.75 0 1.40 -0.20 1.75 -1 1.75 -0.75 0 -1 0.35 -1 1.25 0 0.80 -0.30 1.25 -0.75 1.25 -0.40 0 -0.75 0.35 -0.75 0.75 0 0.40 -0.35 0.75 -0.75 0.75 -0.40 0 -0.75 0.40 -0.75 0.90 0 1.30 -1 2.10 -2.65 2.10 l-1.40 0 1 -1.35z"/>
  <path d="M421.10 355.90 c-0.35 -0.35 -0.60 -1 -0.60 -1.50 0 -0.50 -0.20 -0.90 -0.50 -0.90 -0.75 0 -3 -2.10 -3 -2.80 0 -0.30 -0.35 -0.70 -0.75 -0.90 -0.45 -0.15 -0.75 -0.95 -0.75 -2.05 0 -1.40 -0.20 -1.75 -1 -1.75 -0.75 0 -1 -0.35 -1 -1.25 0 -0.80 -0.30 -1.25 -0.75 -1.25 -0.40 0 -0.75 -0.35 -0.75 -0.75 0 -0.40 -0.20 -0.75 -0.50 -0.75 -0.25 0 -0.50 -0.45 -0.50 -1 0 -0.55 -0.35 -1 -0.75 -1 -0.50 0 -0.75 -0.55 -0.75 -1.75 0 -0.95 0.15 -1.75 0.40 -1.75 0.20 0 1.60 1.90 3.10 4.25 1.50 2.35 3.30 5.15 4 6.20 0.70 1.10 2.40 3.25 3.75 4.85 4 4.60 4.05 4.70 2.40 4.70 -0.80 0 -1.70 -0.25 -2.05 -0.60z"/>
  <path d="M407.50 334.75 c0 -0.70 -0.20 -1.25 -0.50 -1.25 -0.25 0 -0.50 -0.45 -0.50 -1 0 -0.55 -0.20 -1 -0.40 -1 -0.55 0 -1.60 -3.05 -1.60 -4.65 0 -0.75 0.20 -1.35 0.45 -1.35 0.50 0 2.30 3.55 4 7.90 l1.05 2.60 -1.25 0 c-1 0 -1.25 -0.25 -1.25 -1.25z"/>
  <path d="M332.85 325.15 c0.20 -0.50 0.95 -1.90 1.70 -3.15 0.75 -1.25 1.65 -3.10 2 -4.10 0.80 -2.25 1.95 -2.50 1.95 -0.45 0 1.95 -0.45 3.05 -1.30 3.05 -0.45 0 -0.70 0.55 -0.70 1.45 0 0.80 -0.35 1.80 -0.75 2.25 -0.40 0.40 -0.75 0.95 -0.75 1.25 0 0.30 -0.55 0.55 -1.25 0.55 -0.95 0 -1.15 -0.20 -0.90 -0.85z"/>
  <path d="M401.70 323 c-0.20 -0.80 -0.50 -1.50 -0.70 -1.50 -0.55 0 -2 -3.80 -2 -5.25 0 -0.70 -0.20 -1.25 -0.50 -1.25 -0.25 0 -0.50 -0.80 -0.50 -1.80 0 -2.65 1.05 -1.90 2.35 1.70 0.60 1.70 1.80 4.45 2.60 6.10 0.85 1.70 1.55 3.15 1.55 3.25 0 0.15 -0.55 0.25 -1.25 0.25 -1 0 -1.35 -0.30 -1.55 -1.50z"/>
  <path d="M338 314.40 c0 -1.30 1.25 -3.90 1.85 -3.90 0.70 0 0.90 2.30 0.35 3.70 -0.35 0.90 -2.20 1.10 -2.20 0.20z"/>
  <path d="M395.10 306.85 c-0.65 -1.85 -0.80 -4.35 -0.20 -4.35 0.50 0 1.55 1.80 2.35 4.05 0.70 1.90 0.65 1.95 -0.40 1.95 -0.85 0 -1.30 -0.45 -1.75 -1.65z"/>
  <path d="M345.20 296.40 c1.90 -5.40 3.15 -6.55 2.65 -2.35 -0.20 1.50 -0.55 2.75 -0.85 2.85 -0.25 0.10 -0.50 0.70 -0.50 1.35 0 1.90 -0.55 2.75 -1.75 2.75 l-1.15 0 1.60 -4.60z"/>
  <path d="M391.80 300.20 c-0.15 -0.45 -0.30 -1.35 -0.30 -2 0 -0.65 -0.20 -1.20 -0.45 -1.20 -0.30 0 -0.65 -1.05 -0.85 -2.35 -0.20 -1.30 -0.65 -2.65 -1 -3.05 -0.40 -0.35 -0.70 -1.20 -0.70 -1.90 0 -0.65 -0.20 -1.20 -0.50 -1.20 -0.25 0 -0.50 -0.80 -0.50 -1.75 0 -0.95 0.20 -1.75 0.50 -1.75 0.75 0 1.85 2.45 4.15 9.45 2.15 6.45 2.15 6.55 1.05 6.55 -0.60 0 -1.25 -0.35 -1.40 -0.80z"/>
  <path d="M348 288.25 c0 -0.70 1.60 -3.25 2 -3.25 0.30 0 0.50 0.80 0.50 1.75 0 1.55 -0.15 1.75 -1.25 1.75 -0.70 0 -1.25 -0.10 -1.25 -0.25z"/>
  <path d="M351 282.25 c0 -0.75 2.10 -4.25 2.50 -4.25 0.55 0 0.65 2.45 0.20 3.70 -0.30 0.70 -2.70 1.20 -2.70 0.55z"/>
  <path d="M384.30 281.70 c-0.45 -1.25 -0.35 -3.70 0.20 -3.70 0.40 0 2.50 3.50 2.50 4.25 0 0.65 -2.40 0.15 -2.70 -0.55z"/>
  <path d="M354 275.90 c0 -1.05 5.15 -5.65 7.75 -6.90 2.10 -1 3.25 -1.20 7.25 -1.20 4.45 0 4.95 0.10 7.90 1.70 2.90 1.55 7.10 5.35 7.10 6.50 0 0.25 -0.55 0.50 -1.25 0.50 -1.10 0 -1.25 -0.20 -1.25 -1.75 0 -1.65 -0.10 -1.75 -1.75 -1.75 -0.95 0 -1.75 -0.20 -1.75 -0.50 0 -0.25 -0.35 -0.50 -0.75 -0.50 -0.40 0 -0.75 -0.30 -0.75 -0.70 0 -0.75 -1.65 -1.10 -6.85 -1.60 -2.30 -0.25 -3.70 -0.10 -5.15 0.50 -1.10 0.45 -2.60 0.80 -3.25 0.80 -0.90 0 -1.25 0.25 -1.25 1 0 0.80 -0.35 1 -1.75 1 -1.65 0 -1.75 0.10 -1.75 1.75 0 1.55 -0.15 1.75 -1.25 1.75 -0.70 0 -1.25 -0.25 -1.25 -0.60z"/>
  <path d="M355.90 232.15 c-0.50 -0.10 -0.90 -0.55 -0.90 -0.95 0 -0.60 2.05 -0.70 13 -0.70 10.75 0 13 0.10 13 0.70 0 0.35 -0.50 0.80 -1.10 1 -1.30 0.35 -22.70 0.30 -24 -0.05z"/>
  <path d="M344.90 230.80 c-3.80 -1.35 -5.75 -2.50 -10.40 -6.05 -1.80 -1.35 -4.70 -3.45 -6.50 -4.60 -1.80 -1.20 -3.45 -2.30 -3.75 -2.55 -2.05 -1.70 -18.75 -10.10 -20 -10.10 -0.20 0 -1.05 -0.30 -1.90 -0.70 -5.20 -2.35 -16.35 -5.80 -21.85 -6.80 -7.95 -1.40 -16.60 -2.80 -20.75 -3.25 -4.90 -0.55 -5.75 -0.80 -5.75 -1.50 0 -1 1.85 -0.95 10.85 0.25 11.65 1.60 14.40 2.10 23.40 4.35 6 1.50 13.25 4.05 13.25 4.70 0 0.25 0.55 0.45 1.25 0.45 2.60 0 17.75 7.05 17.75 8.30 0 0.40 0.45 0.70 1 0.70 1.20 0 3.50 1 3.50 1.55 0 0.20 0.45 0.55 1 0.70 0.55 0.15 1 0.75 1 1.30 0 0.70 0.35 0.95 1.50 0.95 1.15 0 1.50 0.20 1.50 1 0 0.80 0.35 1 1.50 1 0.85 0 1.50 0.25 1.50 0.50 0 0.30 0.35 0.50 0.80 0.50 0.45 0 0.90 0.45 1.05 1 0.15 0.55 0.60 1 0.95 1 0.40 0 2.25 1 4.10 2.25 3.35 2.25 8.15 4.25 10.10 4.25 0.65 0 1 0.35 1 1 0 1.35 -1.75 1.30 -6.10 -0.20z"/>
  <path d="M387 231.05 c0 -0.75 0.50 -1.05 2.15 -1.30 2.25 -0.35 8.15 -2.95 9.25 -4.10 0.35 -0.35 0.95 -0.65 1.35 -0.65 0.35 0 0.75 -0.35 0.95 -0.75 0.15 -0.40 0.75 -0.75 1.30 -0.75 0.60 0 1 -0.35 1 -0.80 0 -0.45 0.45 -0.90 1 -1.05 0.55 -0.15 1 -0.45 1 -0.70 0 -0.25 0.70 -0.45 1.50 -0.45 1.15 0 1.50 -0.20 1.50 -1 0 -0.80 0.35 -1 1.50 -1 1.15 0 1.50 -0.20 1.50 -1 0 -0.65 0.35 -1 1 -1 0.55 0 1 -0.30 1 -0.65 0 -0.80 2.05 -1.85 3.50 -1.85 0.55 0 1 -0.30 1 -0.70 0 -1.50 18.40 -9.50 29 -12.60 4.90 -1.45 14.65 -3.50 19.75 -4.20 1.95 -0.30 6 -0.85 9 -1.25 7.05 -0.95 8.75 -0.95 8.75 0 0 0.70 -0.85 0.95 -5.75 1.50 -4.15 0.45 -12.80 1.85 -20.75 3.25 -10.25 1.85 -27.65 8.45 -38.75 14.65 -4.85 2.75 -11.30 7 -14.50 9.55 -3.95 3.20 -8.55 5.85 -11.80 6.80 -4.25 1.30 -5.45 1.30 -5.45 0.05z"/>
  <path d="M171.85 202.30 c-0.30 -0.70 0.05 -3.60 1.10 -9.30 2.10 -11.70 6.85 -29.60 9.30 -35 1.15 -2.60 2.75 -6.55 3.50 -8.70 1.40 -4.05 2.10 -5.35 6.85 -12.85 6.60 -10.45 17.45 -20.75 27.70 -26.25 1.70 -0.95 3.25 -1.70 3.40 -1.70 0.15 0 0.30 0.50 0.30 1.15 0 0.90 -0.55 1.45 -2.25 2.30 -1.20 0.60 -2.35 1.30 -2.50 1.60 -0.20 0.25 -0.75 0.45 -1.30 0.45 -0.50 0 -0.95 0.25 -0.95 0.50 0 0.30 -0.35 0.50 -0.75 0.50 -0.40 0 -0.75 0.25 -0.75 0.50 0 0.30 -0.25 0.50 -0.55 0.50 -0.30 0 -1 0.55 -1.55 1.25 -0.55 0.70 -1.25 1.25 -1.55 1.25 -0.35 0 -0.90 0.45 -1.25 1 -0.40 0.70 -1.15 1 -2.30 1 -1.60 0 -1.75 0.15 -1.90 1.65 -0.10 1.05 -0.50 1.75 -1.25 2.10 -0.60 0.25 -1.20 0.85 -1.30 1.35 -0.20 0.60 -0.75 0.90 -1.75 0.90 -1.40 0 -1.55 0.15 -1.70 1.90 -0.15 1.60 -0.35 1.85 -1.50 2 -1.20 0.15 -1.40 0.40 -1.40 1.70 0 1.05 -0.30 1.55 -1 1.75 -0.65 0.15 -1 0.70 -1 1.45 0 0.75 -0.30 1.20 -0.75 1.20 -0.45 0 -0.75 0.45 -0.75 1.25 0 0.70 -0.20 1.25 -0.50 1.25 -0.25 0 -0.50 0.35 -0.50 0.75 0 0.40 -0.20 0.75 -0.50 0.75 -0.25 0 -0.50 0.35 -0.50 0.75 0 0.40 -0.20 0.75 -0.50 0.75 -0.25 0 -0.50 0.35 -0.50 0.75 0 0.40 -0.45 0.75 -1 0.75 -0.75 0 -1 0.35 -1 1.45 0 1.75 -0.95 4.55 -1.55 4.55 -0.25 0 -0.45 0.50 -0.45 1.05 0 1.85 -1.10 4.95 -1.80 4.95 -0.30 0 -0.70 0.85 -0.85 1.90 -0.10 1 -0.85 3.30 -1.60 5.05 -0.70 1.75 -2 5.90 -2.80 9.25 -0.85 3.30 -1.70 6.85 -1.95 7.80 -1 3.90 -2.45 10.45 -3 13.50 -0.30 1.80 -0.80 4.10 -1.05 5.15 -0.30 1.10 -0.40 2.05 -0.30 2.15 0.15 0.15 2.55 -0.20 5.35 -0.80 6.20 -1.20 8 -1.30 8 -0.25 0 0.40 -0.05 0.75 -0.10 0.75 -0.10 0 -1.95 0.35 -4.15 0.80 -2.20 0.40 -5.10 0.95 -6.50 1.20 -1.35 0.25 -2.85 0.55 -3.30 0.75 -0.50 0.20 -0.95 0 -1.10 -0.45z"/>
  <path d="M564 202.50 c-0.70 -0.20 -2.80 -0.65 -4.75 -0.95 -6.40 -1.10 -8.25 -1.60 -8.25 -2.35 0 -0.95 1.95 -0.90 8.05 0.35 3.50 0.70 5.25 0.85 5.35 0.50 0.30 -0.95 1.45 -0.60 1.75 0.50 0.30 1.10 -0.05 2.50 -0.60 2.40 -0.15 0 -0.85 -0.20 -1.55 -0.45z"/>
  <path d="M187.50 199.10 c0 -0.85 0.60 -1.10 4.65 -1.75 12.90 -2.10 15.35 -2.30 15.35 -1.15 0 0.80 -1.35 1.20 -6.45 1.80 -3.70 0.45 -7.80 1.10 -11.65 1.80 -1.70 0.30 -1.90 0.20 -1.90 -0.70z"/>
  <path d="M546.50 199.50 c-2.85 -0.65 -8.25 -1.50 -9.65 -1.50 -2.70 0 -6.35 -1.05 -6.35 -1.85 0 -0.85 1.95 -0.80 9.90 0.30 8.60 1.20 10.10 1.60 10.10 2.60 0 1.05 -0.95 1.15 -4 0.45z"/>
  <path d="M564 198.80 c0 -1.45 -2.65 -14.20 -4 -19.30 -0.25 -0.95 -1.05 -4.10 -1.70 -7 -0.70 -2.90 -1.85 -6.80 -2.60 -8.75 -2.55 -6.80 -1.95 -10.15 0.80 -4.10 1.60 3.50 6.45 22.30 8.25 32.10 1.50 7.85 1.45 7.25 0.25 7.25 -0.55 0 -1 -0.10 -1 -0.20z"/>
  <path d="M208 196.15 c0 -0.80 0.45 -1.10 2.30 -1.35 3.95 -0.50 6.20 -0.40 6.20 0.40 0 0.75 -1.05 1.05 -5.60 1.60 -2.65 0.30 -2.90 0.25 -2.90 -0.65z"/>
  <path d="M526 196.65 c-4.05 -0.60 -4.50 -0.75 -4.50 -1.40 0 -0.85 2.20 -1 6.20 -0.45 1.80 0.25 2.30 0.55 2.30 1.25 0 0.95 -0.90 1.10 -4 0.60z"/>
  <path d="M221 195.10 c0 -0.85 0.50 -1 4.15 -1.25 6.85 -0.55 9.35 -0.45 9.35 0.40 0 0.85 -1.40 1.10 -8.35 1.50 -4.85 0.30 -5.15 0.25 -5.15 -0.65z"/>
  <path d="M241.75 195.50 c-3.30 -0.20 -6.05 -0.40 -6.10 -0.45 -0.10 0 -0.15 -0.40 -0.15 -0.80 0 -0.60 0.75 -0.75 3.90 -0.75 2.20 0 5.65 0.15 7.75 0.30 3.30 0.30 3.85 0.50 3.85 1.25 0 0.75 -0.35 0.95 -1.60 0.85 -0.90 -0.05 -4.35 -0.25 -7.65 -0.40z"/>
  <path d="M487 195.05 c0 -0.75 0.55 -0.95 3.85 -1.25 6.60 -0.55 10.15 -0.40 10.15 0.45 0 0.85 -1.45 1.10 -8.60 1.45 -5 0.25 -5.40 0.20 -5.40 -0.65z"/>
  <path d="M509.25 195.65 c-5 -0.20 -6.75 -0.60 -6.75 -1.40 0 -0.85 2.45 -0.95 9.90 -0.45 4.05 0.30 4.60 0.45 4.60 1.25 0 0.80 -0.35 0.95 -2.10 0.85 -1.20 -0.05 -3.70 -0.15 -5.65 -0.25z"/>
  <path d="M552 154.05 c0 -0.80 -0.20 -1.55 -0.40 -1.65 -0.55 -0.20 -2.60 -5.75 -2.60 -6.95 0 -0.50 -0.35 -0.95 -0.75 -0.95 -0.40 0 -0.85 -0.55 -1.05 -1.25 -0.15 -0.70 -0.50 -1.25 -0.75 -1.25 -0.25 0 -0.45 -0.65 -0.45 -1.50 0 -1.15 -0.20 -1.50 -1 -1.50 -0.75 0 -1 -0.35 -1 -1.25 0 -0.80 -0.30 -1.25 -0.75 -1.25 -0.45 0 -0.75 -0.45 -0.75 -1.20 0 -0.75 -0.35 -1.30 -1 -1.45 -0.70 -0.15 -1 -0.70 -1 -1.55 0 -0.90 -0.25 -1.30 -0.90 -1.30 -1.25 0 -2.10 -0.95 -2.10 -2.35 0 -0.70 -0.30 -1.15 -0.75 -1.15 -0.95 0 -2.75 -1.55 -2.75 -2.35 0 -0.35 -0.30 -0.65 -0.65 -0.65 -1 0 -2.35 -1.65 -2.35 -2.90 0 -0.90 -0.30 -1.10 -1.55 -1.10 -1.10 0 -1.60 -0.25 -1.80 -1 -0.15 -0.55 -0.65 -1 -1.15 -1 -0.50 0 -1.35 -0.55 -1.90 -1.25 -0.55 -0.70 -1.20 -1.25 -1.45 -1.25 -0.25 0 -1.55 -0.75 -2.90 -1.65 -6.55 -4.30 -16.40 -8.65 -26.10 -11.60 -13.20 -4 -37.85 -8.80 -54 -10.50 -2.65 -0.30 -3.15 -0.50 -3.15 -1.30 0 -0.55 0.35 -0.95 0.90 -0.95 2.90 0 34.95 5.15 40.10 6.50 0.95 0.25 4.80 1.15 8.50 2 3.70 0.90 9.45 2.50 12.75 3.60 6.70 2.20 18.80 7.90 23.45 11.05 4.95 3.30 12.45 10.05 16.40 14.70 3.35 3.95 4.80 6.05 10.15 14.80 0.95 1.60 2.55 5.15 3.45 7.90 l1.70 4.95 -1.20 0 c-1 0 -1.20 -0.25 -1.20 -1.45z"/>
  <path d="M224.50 108.45 c0 -0.70 7.40 -4.05 13.60 -6.15 12.80 -4.30 32.65 -8.40 57.15 -11.75 5.40 -0.75 5.75 -0.70 5.75 0.40 0 0.85 -0.50 1 -3.35 1.30 -4.90 0.50 -25.30 3.65 -30.90 4.80 -13.55 2.75 -28.85 7.15 -35.70 10.25 -3.65 1.70 -6.55 2.20 -6.55 1.15z"/>
  <path d="M301.50 90.80 c0 -0.85 0.95 -1.10 9.25 -2.05 8.10 -0.95 7.75 -0.95 7.75 0.20 0 0.85 -0.50 1 -3.85 1.30 -2.15 0.20 -5.25 0.55 -6.90 0.80 -4.40 0.65 -6.25 0.60 -6.25 -0.25z"/>
  <path d="M429.75 91 c-1.35 -0.25 -4.25 -0.55 -6.35 -0.75 -3.40 -0.30 -3.90 -0.45 -3.90 -1.30 0 -1.15 -0.05 -1.15 7.90 -0.20 8.25 1 9.10 1.20 9.10 2.05 0 0.80 -2.50 0.85 -6.75 0.20z"/>
  <path d="M321.50 88.85 c0 -0.85 1.05 -1.15 6.40 -1.60 3.45 -0.35 3.60 -0.30 3.60 0.70 0 0.75 -0.30 1.05 -1.15 1.05 -0.65 0 -2.90 0.15 -5 0.30 -3.30 0.30 -3.85 0.25 -3.85 -0.45z"/>
  <path d="M408.90 89.15 c-2.55 -0.20 -2.90 -0.35 -2.90 -1.25 0 -0.95 0.20 -1 3.90 -0.70 5.35 0.45 6.60 0.75 6.60 1.60 0 0.70 -0.80 0.75 -7.60 0.35z"/>
  <path d="M334 87.80 c0 -0.95 1.45 -1.20 9.15 -1.60 6.10 -0.30 6.35 -0.30 6.35 0.65 0 0.90 -0.45 1 -5.60 1.30 -8.55 0.50 -9.90 0.45 -9.90 -0.35z"/>
  <path d="M392.40 88.15 c-3.55 -0.20 -3.90 -0.30 -3.90 -1.20 0 -1 0.15 -1.05 6.40 -0.70 7.70 0.40 9.10 0.60 9.10 1.55 0 0.70 -1.60 0.75 -11.60 0.35z"/>
 </g>
 <g fill="#fec301">
  <path d="M341.50 658.80 c-12.35 -2.10 -16.15 -3.20 -27.40 -7.95 -6.65 -2.80 -14.35 -7 -21.30 -11.65 -1.60 -1.05 -3.45 -2.30 -4.10 -2.75 -0.65 -0.40 -1.95 -1.50 -2.95 -2.35 -0.95 -0.90 -1.90 -1.60 -2.15 -1.60 -0.20 0 -1.60 -1.30 -3.10 -2.85 -1.50 -1.60 -2.40 -2.60 -2 -2.25 1.20 1.05 1.65 0.65 0.80 -0.65 -0.45 -0.70 -1.50 -2.90 -2.25 -4.90 -3.55 -8.85 -5.70 -13.90 -8.05 -18.70 -1.35 -2.85 -2.50 -5.30 -2.50 -5.45 0 -0.40 -8.80 -18.50 -10.55 -21.70 -0.85 -1.50 -2.05 -4 -2.75 -5.50 -0.70 -1.50 -2.70 -5.65 -4.45 -9.25 -4.75 -9.65 -8.55 -17.80 -11.30 -24.25 -1.40 -3.15 -3.05 -6.85 -3.70 -8.25 -2.40 -5 -5.75 -12.75 -5.75 -13.40 0 -0.35 -0.20 -0.85 -0.45 -1.10 -0.25 -0.30 -1 -1.85 -1.70 -3.50 -0.70 -1.65 -2.35 -5.70 -3.75 -9 -1.35 -3.30 -2.65 -6.55 -2.85 -7.25 -0.20 -0.70 -1.05 -2.70 -1.85 -4.50 -1.85 -4 -4.15 -9.70 -5.65 -14 -0.65 -1.80 -2.65 -7.05 -4.45 -11.70 -1.85 -4.70 -4 -10.55 -4.85 -13 -0.85 -2.50 -2.55 -7 -3.70 -10.05 -2.25 -5.80 -10 -28.95 -14.25 -42.55 -2.45 -7.90 -3.20 -11.90 -1.85 -10.15 0.35 0.45 1.60 1.35 2.80 2 1.20 0.65 2.75 1.50 3.50 1.90 0.70 0.40 2.75 1.15 4.55 1.65 4.15 1.15 15.15 1.20 22.80 0.10 3 -0.45 6.90 -1 8.70 -1.20 9.40 -1.25 27.70 -5 35.50 -7.30 1.50 -0.45 3.75 -1.10 5 -1.45 4.30 -1.25 13.90 -5.10 21.85 -8.80 1.70 -0.80 3.25 -1.45 3.40 -1.45 0.15 0 1.90 -1.05 3.90 -2.35 2.85 -1.85 3.35 -2.40 2.65 -2.65 -0.75 -0.25 -0.40 -0.50 1.45 -1.20 6.05 -2.35 19.15 -14.90 23.50 -22.55 0.75 -1.35 2.20 -3.60 3.15 -4.90 0.95 -1.35 2.70 -4.60 3.85 -7.25 1.15 -2.70 3.35 -7.35 4.90 -10.35 1.55 -3.05 3.30 -6.80 3.85 -8.35 2.30 -6.60 3.20 -8.80 4.80 -12 1.55 -3 4.20 -10.35 4.20 -11.65 0 -0.25 1.80 -4.10 4 -8.60 4.45 -8.95 5.95 -10.75 11 -13 2.40 -1.10 3.30 -1.20 7.50 -1.05 5.30 0.15 7.75 1.05 11.35 4.15 2.55 2.20 8.30 13.40 10.85 21.25 0.95 2.90 2.75 7.40 4 10 1.20 2.60 3 7 3.95 9.80 0.95 2.75 3.20 7.80 4.95 11.25 1.80 3.40 3.75 7.45 4.35 9 0.60 1.55 2.50 4.95 4.20 7.60 1.70 2.65 3.70 5.80 4.45 6.95 2.05 3.25 10.75 12.30 15 15.50 2.05 1.60 4.80 3.35 6.15 3.95 1.55 0.70 2.15 1.20 1.75 1.45 -1.65 1.05 12.50 8.15 26.75 13.40 5.25 1.95 13.50 4.35 18.50 5.40 2.20 0.45 4.80 1 5.75 1.20 10.55 2.30 15.55 3.20 21.75 4 1.95 0.25 6 0.80 9 1.25 6.75 0.90 18 0.95 21.75 0.05 1.50 -0.35 3.65 -1.15 4.75 -1.70 1.10 -0.60 2.85 -1.50 3.90 -2 1.05 -0.55 2.20 -1.40 2.60 -1.90 1.45 -1.95 0.80 1.80 -1.75 10 -3.25 10.30 -12.75 38.70 -15.75 46.80 -3.70 10.20 -8.75 23.60 -9.75 26 -0.50 1.25 -2 5.05 -3.30 8.50 -1.30 3.45 -3.10 7.85 -3.95 9.75 -0.90 1.95 -1.80 4.05 -2 4.75 -0.20 0.70 -0.85 2.50 -1.50 4 -5.40 12.90 -6.45 15.30 -6.80 15.70 -0.25 0.30 -0.45 0.80 -0.45 1.15 0 0.40 -0.70 2.20 -1.55 4.05 -0.90 1.85 -2.20 4.80 -2.95 6.60 -3.85 9.10 -10.60 23.80 -15.50 33.75 -1.90 3.85 -4.10 8.45 -4.95 10.25 -0.80 1.80 -2.05 4.25 -2.75 5.50 -1.45 2.70 -10.80 21.85 -10.80 22.20 0 0.15 -1.30 3 -2.90 6.40 -1.60 3.40 -3.30 7.05 -3.70 8.15 -0.45 1.10 -1.60 3.90 -2.55 6.25 -1 2.35 -2.10 5.05 -2.50 6.05 -0.40 1 -1 2 -1.30 2.15 -0.90 0.55 -0.65 1.45 0.35 1.10 0.45 -0.20 -0.25 0.80 -1.65 2.15 -1.35 1.40 -2.65 2.55 -2.90 2.55 -0.20 0 -1.10 0.70 -2 1.50 -4.35 4.15 -19 12.90 -27.65 16.55 -11.70 4.95 -17.60 6.60 -30.35 8.55 -6.35 0.95 -7.75 1 -9.75 0.50 -2.95 -0.80 -4.60 -1.95 -5.75 -4.15 -1.20 -2.20 -1.05 -5 1.15 -19.70 0.55 -3.45 2.30 -14.75 2.70 -17 0.15 -0.80 0.50 -3.05 0.80 -5 0.80 -5.20 1.35 -8.40 2.50 -14.75 0.60 -3.15 1.30 -7.10 1.55 -8.75 0.30 -1.65 0.70 -4 0.95 -5.25 0.25 -1.25 0.70 -3.70 1 -5.50 1.30 -7.35 1.60 -8.85 2 -10.75 0.25 -1.10 0.70 -3.55 1.05 -5.50 0.80 -4.75 3.30 -12.50 4.90 -15.25 1.95 -3.40 7.30 -8.55 11.80 -11.40 6.10 -3.80 6.75 -4.55 6.75 -7.60 0 -4.65 -3.20 -7.55 -10.30 -9.25 -4.25 -1.05 -68.40 -1.05 -73.20 -0.05 -6.70 1.40 -10.50 4.60 -10.50 8.85 0 1.30 0.15 2.75 0.30 3.20 0.20 0.45 2.60 2.30 5.40 4.10 5.45 3.55 10.75 8.55 12.90 12.15 1.40 2.45 4 10.50 4.85 15.25 0.30 1.65 1 5.35 1.55 8.25 1.15 5.85 1.55 8.15 3 16.50 0.55 3.15 1.45 8.25 2.05 11.25 1.10 5.95 1.65 9.15 2.45 14.40 0.25 1.85 0.70 4.75 1 6.50 5.25 33.20 5.25 33.40 3.15 36.30 -1.40 1.85 -4.50 3.25 -7.65 3.35 -1.50 0.10 -5.80 -0.40 -9.50 -1z m124.85 -152.55 c3.30 -0.95 4.80 -2.85 4.75 -6.05 -0.05 -1.20 -0.30 -2.60 -0.55 -3.15 -0.70 -1.30 -4 -2.50 -8.50 -3.10 -8.25 -1.05 -11.95 -1.50 -16.05 -1.90 -6.75 -0.70 -18.50 -2.05 -21.75 -2.55 -1.65 -0.25 -5.15 -0.70 -7.75 -1 -17.40 -2 -21.60 -3.55 -23.70 -8.65 l-1 -2.35 1.20 -3.35 c0.65 -1.90 1.75 -4.65 2.55 -6.15 2.15 -4.40 10 -13.20 15.90 -17.90 1.25 -1 3.20 -2.60 4.35 -3.60 1.10 -0.95 3.20 -2.75 4.70 -4 9 -7.55 11 -10.40 11.35 -16 0.20 -2.85 0.05 -3.60 -1.20 -6 -1.80 -3.45 -4.80 -5.55 -9.60 -6.75 -3 -0.75 -4.05 -0.75 -6.90 -0.25 -7.25 1.25 -12.65 4.35 -23.40 13.50 -8.90 7.60 -14 9.95 -21.85 10 -7.50 0 -13 -2.50 -21.75 -10.05 -10.60 -9.10 -16.20 -12.30 -23.55 -13.45 -6.50 -1.05 -13.25 1.70 -16.10 6.60 -1.40 2.40 -1.55 2.95 -1.35 6.15 0.35 5.85 2.15 8.50 11.40 16.25 1.45 1.25 3.70 3.15 4.95 4.25 1.30 1.10 3.90 3.30 5.80 4.85 4 3.30 5.85 5.20 10.05 10.40 3.30 4.05 4.85 6.90 6.65 12.15 l1.20 3.40 -1.35 2.70 c-2.45 5 -6.40 6.40 -23.85 8.30 -2.90 0.30 -5.60 0.65 -6 0.80 -0.40 0.15 -3 0.45 -5.75 0.70 -2.75 0.25 -6.70 0.70 -8.75 0.95 -2.05 0.30 -5.75 0.70 -8.25 1 -4.40 0.45 -8.55 0.95 -16.50 2 -2.20 0.25 -5 1 -6.25 1.65 -2.20 1.05 -2.25 1.15 -2.40 3.70 -0.20 3.35 0.90 5.45 3.30 6.55 1.65 0.75 5.45 0.90 35.60 1.10 18.55 0.15 61.65 0.20 95.75 0.10 53.10 -0.10 62.35 -0.25 64.60 -0.85z"/>
  <path d="M492.25 592.05 c0.95 -1.35 2.15 -2.75 2.60 -3.10 0.45 -0.40 -0.25 0.70 -1.55 2.45 -2.80 3.65 -3.55 4.15 -1.05 0.65z"/>
  <path d="M209.35 532.75 c-0.45 -0.95 -0.75 -1.75 -0.60 -1.75 0.35 0 1.85 3.05 1.65 3.30 -0.15 0.10 -0.60 -0.60 -1.05 -1.55z"/>
  <path d="M527.50 534.30 c0 -0.55 1.50 -3.30 1.80 -3.30 0.10 0 -0.15 0.75 -0.60 1.65 -0.95 1.80 -1.20 2.20 -1.20 1.65z"/>
  <path d="M194.85 500 c-0.45 -1.20 -0.75 -2.25 -0.60 -2.40 0.30 -0.30 1.80 3.50 1.60 4.05 -0.05 0.25 -0.55 -0.50 -1 -1.65z"/>
  <path d="M542 501.55 c0 -0.80 1.40 -4.05 1.70 -4.05 0.15 0 -0.10 0.95 -0.55 2.15 -0.95 2.40 -1.15 2.75 -1.15 1.90z"/>
  <path d="M186.35 477.15 c-0.45 -1.25 -0.75 -2.40 -0.65 -2.50 0.10 -0.10 0.60 0.80 1.05 2.10 0.50 1.25 0.80 2.35 0.65 2.50 -0.10 0.10 -0.60 -0.85 -1.05 -2.10z"/>
  <path d="M550.55 479.15 c-0.05 -0.85 1.50 -4.75 1.80 -4.50 0.10 0.15 -0.25 1.30 -0.80 2.65 -0.55 1.35 -1 2.15 -1 1.85z"/>
  <path d="M178.60 452.15 c-0.35 -1.25 -0.55 -2.35 -0.45 -2.50 0.10 -0.10 0.50 0.85 0.85 2.10 0.35 1.25 0.55 2.40 0.40 2.50 -0.10 0.10 -0.50 -0.80 -0.80 -2.10z"/>
  <path d="M558.55 454 c-0.05 -1.10 1 -4.65 1.25 -4.35 0.15 0.15 -0.05 1.35 -0.50 2.65 -0.40 1.35 -0.75 2.10 -0.75 1.70z"/>
  <path d="M173.05 430.90 c0 -0.45 -0.20 -1.25 -0.35 -1.75 -0.25 -0.85 -0.25 -0.85 0.30 0 0.30 0.50 0.45 1.25 0.35 1.75 -0.20 0.75 -0.25 0.75 -0.30 0z"/>
  <path d="M566.10 423.75 c0 -0.55 0.20 -1.55 0.40 -2.25 l0.40 -1.25 0 1.25 c0 0.70 -0.15 1.70 -0.40 2.25 l-0.45 1 0.05 -1z"/>
  <path d="M574.10 378.50 c-0.05 -0.95 0.15 -2.65 0.35 -3.75 0.40 -1.75 0.45 -1.80 0.45 -0.50 0 0.85 -0.15 2.50 -0.35 3.75 -0.40 2.10 -0.45 2.15 -0.45 0.50z"/>
  <path d="M163.35 377.65 c-0.20 -0.15 -0.30 -1.35 -0.30 -2.60 l0.05 -2.30 0.45 2.50 c0.40 2.55 0.35 3 -0.20 2.40z"/>
  <path d="M347.25 231.30 c-3.45 -0.85 -6.45 -2.30 -10.25 -5 -17.60 -12.45 -22.65 -15.25 -37.50 -20.80 -11.90 -4.45 -20.35 -6.40 -36.50 -8.45 -12.40 -1.60 -23.20 -2.25 -31.05 -1.90 -8.75 0.40 -20.55 1.20 -22.95 1.55 -0.95 0.15 -3.75 0.50 -6.25 0.80 -4.95 0.60 -12.80 1.90 -23.25 3.80 -3.70 0.65 -6.90 1.20 -7.10 1.20 -0.55 0 -0.50 -4.05 0.05 -5.80 0.25 -0.80 0.70 -3 1 -4.95 0.55 -3.25 2 -9.70 3.05 -13.75 0.25 -0.95 0.95 -3.75 1.50 -6.25 1.40 -6 2.20 -8.55 4.75 -14.50 1.15 -2.75 2.70 -6.75 3.45 -8.85 1.80 -5 7.60 -14.35 12.50 -20.15 4.45 -5.20 14.10 -13.75 17.55 -15.50 0.85 -0.45 1.95 -1.05 2.50 -1.40 9.60 -5.95 20.60 -9.85 42 -14.85 6.85 -1.60 23.65 -4.30 37 -5.95 16.75 -2.10 22.35 -2.60 45.50 -4.05 10.30 -0.65 41.50 -0.65 51.35 0 24.90 1.60 25 1.60 37.40 3.05 32.60 3.75 58.25 9 73.30 14.95 4.25 1.70 13.05 6.15 17 8.65 2.65 1.70 9.10 6.95 12.45 10.15 6.50 6.30 14.75 18.70 17.50 26.30 0.90 2.55 2.30 6 3 7.65 1.85 4.10 3.50 9.15 4.75 14.50 0.55 2.50 1.25 5.30 1.50 6.25 1.90 7.05 4.05 17.85 4.40 21.95 l0.20 2.65 -1.45 -0.25 c-0.75 -0.15 -4 -0.75 -7.15 -1.30 -3.15 -0.55 -7.75 -1.35 -10.25 -1.75 -8.85 -1.55 -18.05 -2.70 -27 -3.30 -21.50 -1.50 -29.20 -1.20 -52.75 2 -9.80 1.35 -20.15 4.05 -30.25 7.90 -13.85 5.30 -19.15 8.30 -36.40 20.55 -3.70 2.60 -6.60 3.95 -10.35 4.85 -3.75 0.90 -39.60 0.90 -43.25 0z"/>
 </g>
</svg>